<?xml version="1.0" encoding="UTF-8" standalone="no"?>
<!-- Created with Inkscape (http://www.inkscape.org/) -->

<svg
   xmlns:dc="http://purl.org/dc/elements/1.1/"
   xmlns:cc="http://creativecommons.org/ns#"
   xmlns:rdf="http://www.w3.org/1999/02/22-rdf-syntax-ns#"
   xmlns:svg="http://www.w3.org/2000/svg"
   xmlns="http://www.w3.org/2000/svg"
   xmlns:sodipodi="http://sodipodi.sourceforge.net/DTD/sodipodi-0.dtd"
   xmlns:inkscape="http://www.inkscape.org/namespaces/inkscape"
   width="210mm"
   height="297mm"
   viewBox="0 0 210 297"
   version="1.1"
   id="svg8"
   inkscape:version="0.92.2 (5c3e80d, 2017-08-06)"
   sodipodi:docname="logo_others.svg">
  <defs
     id="defs2" />
  <sodipodi:namedview
     id="base"
     pagecolor="#ffffff"
     bordercolor="#666666"
     borderopacity="1.0"
     inkscape:pageopacity="0.0"
     inkscape:pageshadow="2"
     inkscape:zoom="0.98994949"
     inkscape:cx="361.30652"
     inkscape:cy="722.17299"
     inkscape:document-units="mm"
     inkscape:current-layer="layer1"
     showgrid="true"
     showguides="true"
     inkscape:snap-global="false"
     inkscape:snap-others="false"
     inkscape:object-nodes="false"
     inkscape:snap-nodes="false"
     inkscape:snap-grids="true"
     inkscape:snap-bbox="true"
     inkscape:bbox-nodes="true"
     inkscape:window-width="1920"
     inkscape:window-height="1027"
     inkscape:window-x="-8"
     inkscape:window-y="-8"
     inkscape:window-maximized="1">
    <inkscape:grid
       type="xygrid"
       id="grid4546" />
  </sodipodi:namedview>
  <metadata
     id="metadata5">
    <rdf:RDF>
      <cc:Work
         rdf:about="">
        <dc:format>image/svg+xml</dc:format>
        <dc:type
           rdf:resource="http://purl.org/dc/dcmitype/StillImage" />
        <dc:title />
      </cc:Work>
    </rdf:RDF>
  </metadata>
  <g
     inkscape:label="Calque 1"
     inkscape:groupmode="layer"
     id="layer1">
    <g
       id="g4622"
       transform="translate(-9.8778489,7.4580361)">
      <rect
         ry="18.500856"
         rx="14.892715"
         y="18.989014"
         x="26.624393"
         height="58.328537"
         width="39.845695"
         id="rect4519"
         style="opacity:1;fill:#0060ae;fill-opacity:1;fill-rule:nonzero;stroke:none;stroke-width:2;stroke-linecap:round;stroke-linejoin:miter;stroke-miterlimit:4;stroke-dasharray:none;stroke-dashoffset:0;stroke-opacity:1" />
      <path
         sodipodi:nodetypes="cccccc"
         inkscape:connector-curvature="0"
         id="path4521"
         d="M 34.744165,58.748079 56.005327,38.242871 45.988956,29.549419 45.988957,67.441531 56.383303,58.27561 34.366189,37.108943"
         style="fill:none;stroke:#ffffff;stroke-width:3.36500001;stroke-linecap:butt;stroke-linejoin:miter;stroke-miterlimit:4;stroke-dasharray:none;stroke-opacity:1" />
    </g>
    <g
       id="g4618"
       transform="translate(-17.268112,-40.569005)">
      <path
         sodipodi:nodetypes="cccccc"
         inkscape:connector-curvature="0"
         id="path4548"
         d="M 107.15625,99.885417 H 96.723254 l -0.0167,9.260413 8.480686,0.0167 v 9.24372 l -10.468503,0.0167"
         style="fill:none;stroke:#000000;stroke-width:4;stroke-linecap:butt;stroke-linejoin:miter;stroke-miterlimit:4;stroke-dasharray:none;stroke-opacity:1" />
      <path
         sodipodi:nodetypes="ccccc"
         inkscape:connector-curvature="0"
         id="path4550"
         d="m 112.36524,110.38607 8.12649,-0.0236 -0.0118,8.16193 -8.10286,-0.0118 z"
         style="fill:none;stroke:#000000;stroke-width:4;stroke-linecap:butt;stroke-linejoin:miter;stroke-miterlimit:4;stroke-dasharray:none;stroke-opacity:1" />
      <path
         sodipodi:nodetypes="cccc"
         inkscape:connector-curvature="0"
         id="path4552"
         d="m 127,120.52292 v -10.24315 h 9.26041 l 0.0138,10.24282"
         style="fill:none;stroke:#000000;stroke-width:4;stroke-linecap:butt;stroke-linejoin:miter;stroke-miterlimit:4;stroke-dasharray:none;stroke-opacity:1" />
      <path
         sodipodi:nodetypes="cccccc"
         inkscape:connector-curvature="0"
         id="path4556"
         d="m 157.44378,120.52186 -0.0167,-4.85736 h 9.26042 -9.26042 v -5.29167 h 9.26042"
         style="fill:none;stroke:#000000;stroke-width:4;stroke-linecap:butt;stroke-linejoin:miter;stroke-miterlimit:4;stroke-dasharray:none;stroke-opacity:1" />
      <path
         sodipodi:nodetypes="cc"
         inkscape:connector-curvature="0"
         id="path4558"
         d="m 110.06667,98.033333 c 0.87474,1.158076 0.57121,2.192627 0,3.174997"
         style="fill:none;stroke:#000000;stroke-width:1.16499996;stroke-linecap:butt;stroke-linejoin:miter;stroke-miterlimit:4;stroke-dasharray:none;stroke-opacity:1" />
      <path
         sodipodi:nodetypes="cc"
         inkscape:connector-curvature="0"
         id="path4560"
         d="m 111.65417,95.652083 c 2.22251,2.828397 1.24479,5.393917 0,7.937497"
         style="fill:none;stroke:#000000;stroke-width:1.16499996;stroke-linecap:butt;stroke-linejoin:miter;stroke-miterlimit:4;stroke-dasharray:none;stroke-opacity:1" />
      <path
         sodipodi:nodetypes="cc"
         inkscape:connector-curvature="0"
         id="path4562"
         d="m 113.77083,94.329167 c 2.86714,3.549721 2.04203,7.071183 0,10.583333"
         style="fill:none;stroke:#000000;stroke-width:1.16499996;stroke-linecap:butt;stroke-linejoin:miter;stroke-miterlimit:4;stroke-dasharray:none;stroke-opacity:1" />
      <path
         sodipodi:nodetypes="ccccc"
         inkscape:connector-curvature="0"
         id="path4550-4"
         d="m 142.53988,110.38607 8.12649,-0.0236 -0.0118,8.16193 -8.10286,-0.0118 z"
         style="fill:none;stroke:#000000;stroke-width:4;stroke-linecap:butt;stroke-linejoin:miter;stroke-miterlimit:4;stroke-dasharray:none;stroke-opacity:1" />
      <path
         sodipodi:nodetypes="cccccc"
         inkscape:connector-curvature="0"
         id="path4556-4"
         d="m 170.034,120.51604 -0.0167,-4.85736 h 9.26042 -9.26042 v -5.29167 h 9.26042"
         style="fill:none;stroke:#000000;stroke-width:4;stroke-linecap:butt;stroke-linejoin:miter;stroke-miterlimit:4;stroke-dasharray:none;stroke-opacity:1" />
    </g>
    <g
       id="g4789"
       transform="translate(23.097795,123.81042)">
      <g
         id="g4773">
        <rect
           style="opacity:1;fill:#000601;fill-opacity:1;fill-rule:nonzero;stroke:none;stroke-width:1.16499996;stroke-linecap:round;stroke-linejoin:miter;stroke-miterlimit:4;stroke-dasharray:none;stroke-dashoffset:0;stroke-opacity:1"
           id="rect4754"
           width="29.104166"
           height="15.875"
           x="54.239582"
           y="-91.9375"
           rx="1.0020818"
           ry="0.930206" />
        <path
           style="fill:#f5f806;fill-opacity:1;stroke:none;stroke-width:0.26458332px;stroke-linecap:butt;stroke-linejoin:miter;stroke-opacity:1"
           d="m 57.613287,-79.231973 -0.01671,0.785104 3.775182,-0.01671 0.01983,-0.776291 -1.340633,0.0059 v -6.97484 l 3.921503,7.854817 4.582959,-8.031996 -0.05906,7.157924 H 66.93721 l 0.0118,0.755954 h 6.342912 v -0.755954 l -1.582775,0.0118 v -10.087239 l 1.6064,0.0118 v -0.720516 l -3.756139,0.03543 -4.204986,7.335102 -3.708892,-7.40597 -4.684867,-0.0285 0.01671,0.741277 2.031622,1.366109 0.0025,8.734794 c -0.466038,0.0048 -0.932158,0.002 -1.398222,0.002 z"
           id="path4732"
           inkscape:connector-curvature="0"
           sodipodi:nodetypes="cccccccccccccccccccccccccc" />
        <path
           style="fill:#f5f806;fill-opacity:1;stroke:none;stroke-width:0.26458332px;stroke-linecap:butt;stroke-linejoin:miter;stroke-opacity:1"
           d="m 75.704093,-86.398136 c 1.624988,0.07013 3.201728,0.01964 4.57699,-0.53454 l 0.200454,7.684 h 0.968851 l 0.03341,1.00226 -5.846522,-0.01669 v -1.002261 l 1.319644,-0.01669 -0.01669,-5.629365 -0.601356,-0.400904 h -0.65147 z"
           id="path4734"
           inkscape:connector-curvature="0"
           sodipodi:nodetypes="cccccccccccc" />
        <ellipse
           style="opacity:1;fill:#f5f806;fill-opacity:1;fill-rule:nonzero;stroke:none;stroke-width:1.16499996;stroke-linecap:round;stroke-linejoin:miter;stroke-miterlimit:4;stroke-dasharray:none;stroke-dashoffset:0;stroke-opacity:1"
           id="path4736"
           cx="78.468658"
           cy="-89.020721"
           rx="1.979465"
           ry="1.8040693" />
        <ellipse
           style="opacity:1;fill:#000000;fill-opacity:1;fill-rule:nonzero;stroke:none;stroke-width:1.16499996;stroke-linecap:round;stroke-linejoin:miter;stroke-miterlimit:4;stroke-dasharray:none;stroke-dashoffset:0;stroke-opacity:1"
           id="path4738"
           cx="86.795776"
           cy="-81.971489"
           rx="1.5367998"
           ry="1.5200955" />
        <ellipse
           style="opacity:1;fill:#000000;fill-opacity:1;fill-rule:nonzero;stroke:none;stroke-width:1.16499996;stroke-linecap:round;stroke-linejoin:miter;stroke-miterlimit:4;stroke-dasharray:none;stroke-dashoffset:0;stroke-opacity:1"
           id="path4740"
           cx="101.83863"
           cy="-85.424271"
           rx="1.2969649"
           ry="1.2215601" />
        <path
           style="fill:#000000;stroke:none;stroke-width:0.26458332px;stroke-linecap:butt;stroke-linejoin:miter;stroke-opacity:1"
           d="m 91.623334,-85.880301 3.858704,0.05011 -0.01669,0.200451 -0.501129,-0.0167 -0.467722,0.451017 0.05011,6.113791 0.250566,0.467722 2.188271,-0.03341 1.302938,-1.570209 -0.03341,1.954408 -6.932303,0.03341 1.052372,-0.434311 -0.01669,-6.665034 -0.267269,-0.267271 h -0.484426 z"
           id="path4744"
           inkscape:connector-curvature="0" />
        <path
           style="fill:#000000;stroke:none;stroke-width:0.26458332px;stroke-linecap:butt;stroke-linejoin:miter;stroke-opacity:1"
           d="m 100.09578,-83.474376 1.20184,0.230327 c 0.59186,-0.05491 1.22089,-0.332819 1.84263,-0.566962 l -0.0472,4.913691 c 0.26296,0.20951 0.588,0.356939 1.03943,0.377976 l -5e-5,0.366162 -4.204986,0.01181 c 0.401006,-0.2229 0.916196,-0.360167 1.086686,-0.755951 l -0.0472,-3.732517 c -0.0364,-0.177883 -0.21604,-0.294386 -0.47247,-0.377976 h -0.47247 c -0.151305,-0.278404 -0.006,-0.37473 0.0738,-0.46656 z"
           id="path4746"
           inkscape:connector-curvature="0"
           sodipodi:nodetypes="cccccccccccc" />
        <path
           style="fill:#000000;stroke:none;stroke-width:0.26458332px;stroke-linecap:butt;stroke-linejoin:miter;stroke-opacity:1"
           d="m 109.18787,-83.905507 c -0.67465,-0.04341 -1.29393,-0.0038 -1.84263,0.141743 -0.48309,0.192283 -0.78878,0.680243 -1.08669,1.181174 -0.1953,0.456722 -0.0199,0.913444 0.0473,1.370166 0.56414,0.510776 1.15274,0.825984 1.74814,1.08668 -0.87202,0.321253 -1.22899,0.753021 -1.70089,1.133928 0.0207,0.606826 0.39522,0.844053 0.89769,1.039434 -0.54564,0.02689 -1.01244,0.211479 -1.46465,0.425225 l -0.0945,0.614212 c 0.23771,0.469589 0.67993,0.851527 1.13393,1.22842 0.30326,0.212108 0.92629,0.384245 1.46466,0.566965 l 2.22061,-0.09449 c 0.58784,-0.270879 1.22755,-0.48247 1.6064,-0.992187 0.1884,-0.755953 0.16935,-1.511905 0.14174,-2.267858 l -3.87426,-1.13393 c 0.0817,-0.197354 0.19382,-0.399778 0.0945,-0.566962 0.49572,0.123987 1.0641,0.126867 1.65364,0.09449 0.76312,-0.19757 1.34711,-0.574269 1.79539,-1.086681 0.10498,-0.409474 0.1611,-0.818949 0.0472,-1.228423 -0.17324,-0.231343 -0.34648,-0.313235 -0.51972,-0.425223 l -0.0945,-0.425225 h 1.65365 c -0.0294,-0.236586 0.10917,-0.501165 -0.0945,-0.708705 l -2.17337,0.377976 c -0.48918,-0.161132 -0.97779,-0.323221 -1.55914,-0.330729 z"
           id="path4748"
           inkscape:connector-curvature="0"
           sodipodi:nodetypes="ccccccccccccccccccccccccc" />
        <path
           style="fill:#000000;stroke:none;stroke-width:0.26458332px;stroke-linecap:butt;stroke-linejoin:miter;stroke-opacity:1"
           d="m 114.31417,-85.889882 1.2048,0.141743 1.91351,-0.236236 -0.0236,3.023809 0.66146,-0.519716 0.89769,-0.212611 1.53553,0.02363 0.66146,0.425223 0.3071,0.590589 v 3.945126 l 0.96857,0.425222 -3.9215,0.02363 0.77957,-0.614211 v -3.756139 l -0.37797,-0.283483 -1.01582,-0.02363 -0.25985,0.307105 -0.16537,3.897881 0.77958,0.377976 v 0.188986 h -4.11049 l -0.0236,-0.259858 1.18117,-0.4016 -0.0236,-6.236607 -1.01581,-0.377976 z"
           id="path4750"
           inkscape:connector-curvature="0" />
        <path
           style="fill:#000000;stroke:none;stroke-width:0.26458332px;stroke-linecap:butt;stroke-linejoin:miter;stroke-opacity:1"
           d="m 124.04706,-83.622024 1.11031,0.04725 -0.0236,-0.897691 2.008,-0.779577 0.11811,1.795386 1.7009,-0.09449 0.0236,0.661458 -1.72452,-0.02363 -0.0236,3.330916 0.4961,0.637834 1.34653,-0.04725 0.0709,0.661458 -3.14193,0.401601 c -0.40283,-0.117296 -0.71427,-0.295523 -0.85045,-0.590587 l 0.0236,-4.37035 -1.22842,-0.02363 z"
           id="path4752"
           inkscape:connector-curvature="0"
           sodipodi:nodetypes="ccccccccccccccccc" />
        <ellipse
           style="opacity:1;fill:#ffffff;fill-opacity:1;fill-rule:nonzero;stroke:none;stroke-width:0.26499996;stroke-linecap:round;stroke-linejoin:miter;stroke-miterlimit:4;stroke-dasharray:none;stroke-dashoffset:0;stroke-opacity:1"
           id="path4756"
           cx="109.06266"
           cy="-82.02581"
           rx="0.91873902"
           ry="1.2737412" />
        <path
           style="fill:#ffffff;stroke:none;stroke-width:0.26458332px;stroke-linecap:butt;stroke-linejoin:miter;stroke-opacity:1"
           d="m 108.0437,-78.146189 c 0.90781,0.164613 1.82749,0.186712 2.70611,0.701582 0.18346,0.367496 0.0487,0.734991 0.0334,1.102487 -0.14026,0.19608 -0.37078,0.256774 -0.56795,0.367496 h -1.90429 c -0.35155,-0.190521 -0.56859,-0.414666 -0.66818,-0.668176 v -1.102485 c 0.0485,-0.170134 0.13423,-0.324288 0.40091,-0.400904 z"
           id="path4758"
           inkscape:connector-curvature="0"
           sodipodi:nodetypes="cccccccc" />
      </g>
    </g>
  </g>
</svg>
