<?xml version="1.0" encoding="UTF-8" standalone="no"?>
<svg
   xmlns:dc="http://purl.org/dc/elements/1.1/"
   xmlns:cc="http://creativecommons.org/ns#"
   xmlns:rdf="http://www.w3.org/1999/02/22-rdf-syntax-ns#"
   xmlns:svg="http://www.w3.org/2000/svg"
   xmlns="http://www.w3.org/2000/svg"
   xmlns:sodipodi="http://sodipodi.sourceforge.net/DTD/sodipodi-0.dtd"
   xmlns:inkscape="http://www.inkscape.org/namespaces/inkscape"
   sodipodi:docname="dc_motor.svg"
   inkscape:version="1.0 (4035a4fb49, 2020-05-01)"
   id="svg8"
   version="1.1"
   viewBox="0 0 17.385845 17.264809"
   height="17.264809mm"
   width="17.385845mm">
  <defs
     id="defs2" />
  <sodipodi:namedview
     inkscape:window-maximized="1"
     inkscape:window-y="-8"
     inkscape:window-x="-8"
     inkscape:window-height="1057"
     inkscape:window-width="1920"
     fit-margin-bottom="0"
     fit-margin-right="0"
     fit-margin-left="0"
     fit-margin-top="0"
     inkscape:snap-global="false"
     showgrid="false"
     inkscape:document-rotation="0"
     inkscape:current-layer="layer1"
     inkscape:document-units="mm"
     inkscape:cy="-104.13356"
     inkscape:cx="-218.54403"
     inkscape:zoom="1.4"
     inkscape:pageshadow="2"
     inkscape:pageopacity="0.0"
     borderopacity="1.0"
     bordercolor="#666666"
     pagecolor="#ffffff"
     id="base" />
  <metadata
     id="metadata5">
    <rdf:RDF>
      <cc:Work
         rdf:about="">
        <dc:format>image/svg+xml</dc:format>
        <dc:type
           rdf:resource="http://purl.org/dc/dcmitype/StillImage" />
        <dc:title></dc:title>
      </cc:Work>
    </rdf:RDF>
  </metadata>
  <g
     transform="translate(-23.976274,-50.178833)"
     id="layer1"
     inkscape:groupmode="layer"
     inkscape:label="Calque 1">
    <ellipse
       ry="8.6324043"
       rx="8.6929226"
       cy="58.811237"
       cx="32.669197"
       id="path1419"
       style="fill:#999999;fill-opacity:1;fill-rule:evenodd;stroke:none;stroke-width:0.508067;stroke-linecap:round;stroke-miterlimit:4;stroke-dasharray:none;stroke-opacity:1" />
    <path
       id="path1413"
       d="m 31.388674,62.763179 c -0.183593,-0.0475 -0.436222,-0.113221 -0.561397,-0.146057 l -0.227592,-0.05969 v -0.46977 -0.46977 L 30.21873,61.240318 29.837775,60.862752 h -0.461933 -0.461933 l -0.136227,-0.551329 -0.136231,-0.551333 0.311513,-0.315427 0.311512,-0.315433 v -0.421023 -0.421019 l -0.310584,-0.314493 -0.310585,-0.31449 0.140455,-0.582614 0.140455,-0.582615 h 0.49066 0.490655 l 0.344616,-0.348976 0.344612,-0.348973 0.01764,-0.481881 0.01764,-0.48188 0.541423,-0.135911 0.541421,-0.135915 0.364119,0.329509 c 0.356327,0.322456 0.371976,0.32951 0.731335,0.32951 0.363306,0 0.370796,-0.0036 0.702783,-0.331185 l 0.335563,-0.331185 0.54622,0.137587 0.546221,0.13759 0.01764,0.48188 0.01764,0.481881 0.344613,0.348973 0.344613,0.348976 h 0.490659 0.490656 l 0.140455,0.582615 0.140455,0.582614 -0.310581,0.31449 -0.310584,0.314493 v 0.421019 0.421023 l 0.311512,0.315433 0.311509,0.315427 -0.136227,0.551333 -0.136231,0.551329 h -0.465318 -0.465322 l -0.377566,0.380955 -0.377568,0.380952 v 0.466385 0.466385 l -0.22759,0.05923 c -0.12518,0.03256 -0.381982,0.09862 -0.570679,0.146767 l -0.343084,0.08754 -0.32245,-0.326501 -0.322446,-0.326504 h -0.394805 -0.394807 l -0.335563,0.325791 -0.335561,0.325789 z m 2.091728,-1.38655 c 1.366654,-0.355968 2.266206,-1.714992 2.040357,-3.082544 -0.156309,-0.946504 -0.706238,-1.680959 -1.566039,-2.091514 -0.460162,-0.219727 -0.489989,-0.225474 -1.170146,-0.225474 -0.680161,0 -0.709988,0.0058 -1.170152,0.225474 -1.766305,0.843415 -2.144177,3.155186 -0.736235,4.504232 0.682071,0.653539 1.679267,0.910224 2.602215,0.669826 z"
       style="fill:#e7cb3b;fill-opacity:1;fill-rule:evenodd;stroke:none;stroke-width:0.221357;stroke-linecap:round;stroke-miterlimit:4;stroke-dasharray:none;stroke-opacity:1" />
    <path
       id="path1417"
       d="m 31.914649,61.286442 c -0.865799,-0.305965 -1.471494,-0.935594 -1.741981,-1.810815 -0.396028,-1.281431 0.234627,-2.642908 1.515661,-3.272038 0.313083,-0.153761 0.392701,-0.165803 1.096245,-0.165803 0.745158,0 0.766128,0.0038 1.180044,0.21136 1.44893,0.726713 1.977097,2.460316 1.169447,3.838468 -0.230994,0.394159 -0.779709,0.878231 -1.241357,1.095117 -0.360892,0.169548 -0.48312,0.194875 -1.017099,0.210768 -0.490666,0.01461 -0.674727,-0.0059 -0.96096,-0.107057 z"
       style="fill:#ffdd55;fill-opacity:1;fill-rule:evenodd;stroke:#ffdd55;stroke-width:0.221356;stroke-linecap:round;stroke-miterlimit:4;stroke-dasharray:none;stroke-opacity:1" />
  </g>
</svg>
