<?xml version="1.0" encoding="UTF-8" standalone="no"?>
<!-- Created with Inkscape (http://www.inkscape.org/) -->

<svg
   xmlns:dc="http://purl.org/dc/elements/1.1/"
   xmlns:cc="http://creativecommons.org/ns#"
   xmlns:rdf="http://www.w3.org/1999/02/22-rdf-syntax-ns#"
   xmlns:svg="http://www.w3.org/2000/svg"
   xmlns="http://www.w3.org/2000/svg"
   xmlns:sodipodi="http://sodipodi.sourceforge.net/DTD/sodipodi-0.dtd"
   xmlns:inkscape="http://www.inkscape.org/namespaces/inkscape"
   width="175.45074mm"
   height="108.13147mm"
   viewBox="0 0 175.45075 108.13147"
   version="1.1"
   id="svg8047"
   inkscape:version="0.92.2 (5c3e80d, 2017-08-06)"
   sodipodi:docname="GLUE_GUN.svg"
   inkscape:export-filename="E:\user\Google Drive\MADNERD\github\publicDomainSVG\tools\GLUE_GUN.png"
   inkscape:export-xdpi="96"
   inkscape:export-ydpi="96">
  <defs
     id="defs8041" />
  <sodipodi:namedview
     id="base"
     pagecolor="#ffffff"
     bordercolor="#666666"
     borderopacity="1.0"
     inkscape:pageopacity="0.0"
     inkscape:pageshadow="2"
     inkscape:zoom="0.0875"
     inkscape:cx="-614.1857"
     inkscape:cy="-95.450734"
     inkscape:document-units="mm"
     inkscape:current-layer="layer1"
     showgrid="false"
     inkscape:window-width="1137"
     inkscape:window-height="862"
     inkscape:window-x="332"
     inkscape:window-y="98"
     inkscape:window-maximized="0"
     fit-margin-top="0"
     fit-margin-left="0"
     fit-margin-right="0"
     fit-margin-bottom="0" />
  <metadata
     id="metadata8044">
    <rdf:RDF>
      <cc:Work
         rdf:about="">
        <dc:format>image/svg+xml</dc:format>
        <dc:type
           rdf:resource="http://purl.org/dc/dcmitype/StillImage" />
        <dc:title></dc:title>
      </cc:Work>
    </rdf:RDF>
  </metadata>
  <g
     inkscape:label="Calque 1"
     inkscape:groupmode="layer"
     id="layer1"
     transform="translate(-341.93407,-375.29214)">
    <g
       transform="matrix(1.1099993,0,0,1.1099993,314.77354,376.04358)"
       id="layer1-44"
       inkscape:label="Calque 1">
      <g
         id="g855">
        <path
           style="display:inline;opacity:1;fill:#e66629;fill-opacity:1;stroke:#800080;stroke-width:0.31556797;stroke-miterlimit:4;stroke-dasharray:0.31556801, 0.31556801;stroke-dashoffset:0;stroke-opacity:0"
           d="m 102.08536,62.951433 c -2.291425,1.055425 -4.595732,1.660146 -6.774587,1.777489 -1.340632,0.0723 -2.330594,0.297519 -4.100766,0.932168 l -2.333531,0.836908 -0.418892,-0.718076 C 88.227105,65.385129 87.677419,64.556721 87.235828,63.93938 l -0.802731,-1.122554 0.825341,-1.603448 c 2.636088,-5.121356 3.659658,-7.374263 4.247729,-9.349455 0.745682,-2.50455 0.998157,-5.258112 0.657039,-7.166001 -0.219962,-1.231001 -0.20594,-1.294974 0.281307,-1.27622 0.281744,0.0088 2.623337,0.0596 5.20277,0.108231 2.579397,0.04864 4.901177,0.137148 5.159437,0.196741 0.86706,0.200244 9.14431,6.579199 12.11433,9.336178 l 1.30001,1.20677 -1.80672,1.053148 c -0.99337,0.57979 -2.68385,1.661943 -3.75632,2.405171 -3.26341,2.261538 -6.73383,4.375894 -8.57292,5.222969 z"
           id="path913"
           inkscape:connector-curvature="0" />
        <path
           style="display:inline;opacity:1;fill:none;fill-opacity:1;stroke:#800080;stroke-width:0.22314031;stroke-miterlimit:4;stroke-dasharray:0.22314025, 0.22314025;stroke-dashoffset:0;stroke-opacity:0"
           d="m 121.3755,90.214071 -0.83613,-0.04382 v -1.374196 -1.374196 h -0.65436 c -0.60109,0 -0.65441,0.03067 -0.65441,0.363684 0,0.266409 -0.0775,0.363683 -0.29094,0.363683 -0.2134,0 -0.29095,-0.09683 -0.29095,-0.363683 0,-0.290946 -0.0727,-0.363684 -0.36368,-0.363684 -0.29095,0 -0.36368,0.07273 -0.36368,0.363684 0,0.199806 -0.0709,0.363683 -0.15819,0.363683 -0.0868,0 -0.78091,-0.572603 -1.54232,-1.272408 -0.93081,-0.855531 -1.30781,-1.287789 -1.15073,-1.319425 0.13715,-0.02629 0.23354,-0.192357 0.23354,-0.400051 0,-0.276486 -0.0763,-0.352729 -0.35273,-0.352729 -0.20068,0 -0.37331,0.09683 -0.40004,0.223907 -0.0307,0.156427 -0.42022,-0.108232 -1.27767,-0.872489 -0.67689,-0.603188 -1.27087,-1.096701 -1.31995,-1.096701 -0.0491,0 -0.0605,-0.196302 -0.0263,-0.436421 0.0574,-0.389972 0.0219,-0.436419 -0.31592,-0.436419 -0.37376,0 -0.3799,-0.01753 -0.3799,-1.017918 v -1.017918 h 1.01793 1.01795 v 0.654367 c 0,0.601041 0.0307,0.654366 0.36368,0.654366 0.35055,0 0.36369,-0.03505 0.36369,-0.945181 0,-0.91131 -0.0132,-0.945225 -0.36369,-0.945225 -0.33388,0 -0.36368,-0.05346 -0.36368,-0.654367 0,-0.601084 0.0307,-0.654409 0.36368,-0.654409 0.26685,0 0.36369,0.07755 0.36369,0.290946 0,0.248005 0.0973,0.290946 0.65432,0.290946 h 0.65441 v -0.65441 c 0,-0.601041 -0.0307,-0.654367 -0.36369,-0.654367 -0.29094,0 -0.36368,-0.07273 -0.36368,-0.363683 0,-0.333886 -0.0534,-0.363683 -0.65436,-0.363683 -0.55745,0 -0.65437,-0.04382 -0.65437,-0.290946 0,-0.21339 0.0968,-0.290946 0.36368,-0.290946 0.36106,0 0.36369,-0.0088 0.36369,-1.308777 0,-1.299049 -0.002,-1.308733 -0.36369,-1.308733 -0.33388,0 -0.36368,-0.05345 -0.36368,-0.65441 0,-0.557398 -0.0438,-0.654323 -0.29095,-0.654323 -0.21338,0 -0.29093,-0.09683 -0.29093,-0.363682 0,-0.290947 -0.0727,-0.363683 -0.3637,-0.363683 -0.2664,0 -0.36368,-0.07755 -0.36368,-0.290946 0,-0.213391 -0.0968,-0.290947 -0.36368,-0.290947 -0.33915,0 -0.36368,-0.04863 -0.36368,-0.727103 v -0.727059 h 1.01801 c 0.92098,0 1.01791,-0.0263 1.01791,-0.290946 0,-0.262904 -0.0968,-0.290947 -1.01791,-0.290947 -0.98883,0 -1.01792,-0.0088 -1.01792,-0.363682 0,-0.26641 -0.0775,-0.363684 -0.29095,-0.363684 -0.248,0 -0.29095,-0.09683 -0.29095,-0.65441 v -0.654367 h 1.01792 c 0.92096,0 1.01792,-0.02629 1.01792,-0.290946 0,-0.270352 -0.0968,-0.290946 -1.38147,-0.290946 -1.3766,0 -1.38143,-0.0012 -1.38143,-0.363683 0,-0.333888 -0.0534,-0.363683 -0.65441,-0.363683 h -0.65436 v -0.65441 c 0,-0.601041 0.0307,-0.654366 0.36368,-0.654366 0.33389,0 0.36369,-0.05345 0.36369,-0.654367 0,-0.601085 -0.0307,-0.654411 -0.36369,-0.654411 -0.33389,0 -0.36368,-0.05345 -0.36368,-0.654322 v -0.654368 h 1.01791 c 0.98883,0 1.01792,-0.0088 1.01792,-0.363682 0,-0.353168 -0.0307,-0.363684 -1.01792,-0.363684 -0.92094,0 -1.01791,-0.02629 -1.01791,-0.290947 0,-0.193672 -0.0972,-0.290946 -0.29095,-0.290946 -0.27868,0 -0.29094,-0.09683 -0.29094,-2.32665 v -2.326696 h -0.65446 c -0.5574,0 -0.65437,0.04382 -0.65437,0.290947 0,0.21339 -0.0968,0.290946 -0.36368,0.290946 -0.29095,0 -0.36369,0.07273 -0.36369,0.363683 0,0.266408 -0.0776,0.363683 -0.29094,0.363683 -0.24801,0 -0.29095,-0.09728 -0.29095,-0.654411 0,-0.60104 -0.0307,-0.654366 -0.36368,-0.654366 -0.35317,0 -0.36368,-0.03067 -0.36368,-1.017918 0,-0.988823 -0.009,-1.017918 -0.36369,-1.017918 h -0.36368 v -2.32665 -2.326651 h -0.65437 c -0.55744,0 -0.65436,-0.04382 -0.65436,-0.290947 0,-0.21339 0.0968,-0.290946 0.36368,-0.290946 0.36105,0 0.36368,-0.0088 0.36368,-1.308733 0,-1.211809 0.0219,-1.308733 0.29095,-1.308733 0.21339,0 0.29095,-0.09683 0.29095,-0.363683 0,-0.290946 0.0727,-0.363682 0.36368,-0.363682 0.33389,0 0.36368,-0.05345 0.36368,-0.654367 0,-0.60104 -0.0307,-0.654366 -0.36368,-0.654366 -0.29095,0 -0.36368,-0.07273 -0.36368,-0.363683 0,-0.266408 -0.0776,-0.363683 -0.29095,-0.363683 -0.19367,0 -0.29095,-0.09683 -0.29095,-0.290946 0,-0.248006 -0.0973,-0.290946 -0.65436,-0.290946 -0.60109,0 -0.65437,-0.03067 -0.65437,-0.363684 0,-0.290947 -0.0727,-0.363683 -0.36368,-0.363683 -0.26641,0 -0.36369,-0.07755 -0.36369,-0.290946 0,-0.193672 -0.0968,-0.290947 -0.29094,-0.290947 -0.21339,0 -0.29095,-0.09683 -0.29095,-0.363682 0,-0.290947 -0.0727,-0.363683 -0.36368,-0.363683 -0.26641,0 -0.36368,-0.07755 -0.36368,-0.290947 0,-0.193672 -0.09681,-0.290946 -0.290955,-0.290946 -0.19367,0 -0.29095,0.09683 -0.29095,0.290946 0,0.251949 -0.0968,0.290947 -0.7271,0.290947 -0.630135,0 -0.727103,-0.03943 -0.727103,-0.290947 0,-0.281306 -0.09683,-0.290946 -2.908325,-0.290946 h -2.908236 v -0.363683 c 0,-0.290946 -0.07273,-0.363683 -0.363683,-0.363683 -0.27123,0 -0.363684,-0.07668 -0.363684,-0.302339 0,-0.293138 -0.0574,-0.300586 -1.963317,-0.254578 l -1.963319,0.04732 1.32e-4,-0.763428 1.31e-4,-0.763431 h -1.017874 c -0.988867,0 -1.017918,0.0088 -1.017918,0.363683 0,0.357111 -0.0219,0.363683 -1.15143,0.363683 -0.633289,0 -1.23858,0.03505 -1.345101,0.07493 -0.153359,0.05915 -0.183594,-0.15336 -0.145911,-1.017917 l 0.04776,-1.092627 h -1.320258 c -1.311318,0 -1.320212,0.0026 -1.320212,0.363683 v 0.363682 h -2.035854 -2.035836 v -0.363684 -0.363683 h -1.599592 c -1.502668,0 -1.599591,-0.01753 -1.599591,-0.290946 0,-0.284373 -0.09683,-0.290947 -4.362531,-0.290947 h -4.362486 v -0.363682 -0.363683 h -1.599592 -1.599591 v 0.363683 0.363682 h -2.326618 -2.32665 v -0.654357 -0.654365 h -2.035748 c -1.938912,0 -2.035836,0.01315 -2.035836,0.290946 0,0.193672 -0.09683,0.290946 -0.290947,0.290946 -0.247567,0 -0.290946,-0.09683 -0.290946,-0.654415 V 33.176836 H 49.134649 46.51714 V 32.522425 31.86806 h -1.672284 -1.672284 v -0.363683 c 0,-0.290947 -0.07273,-0.363683 -0.363684,-0.363683 -0.266408,0 -0.363683,-0.07755 -0.363683,-0.290946 0,-0.248007 0.09683,-0.290947 0.654367,-0.290947 0.601041,0 0.654366,-0.03067 0.654366,-0.363683 0,-0.333887 -0.05345,-0.363683 -0.654366,-0.363683 -0.557443,0 -0.654367,-0.04382 -0.654367,-0.290947 0,-0.248005 -0.09683,-0.290946 -0.654366,-0.290946 h -0.65441 v -0.654366 c 0,-0.557443 -0.04382,-0.65441 -0.290946,-0.65441 -0.213391,0 -0.290947,-0.09683 -0.290947,-0.363683 0,-0.290947 -0.07273,-0.363683 -0.363683,-0.363683 -0.266408,0 -0.363682,-0.07755 -0.363682,-0.290946 0,-0.248007 -0.09683,-0.290947 -0.654367,-0.290947 h -0.654366 v 0.654323 0.654366 h -0.654367 c -0.601085,0 -0.654366,-0.03067 -0.654366,-0.363683 0,-0.333888 -0.05346,-0.363683 -0.654411,-0.363683 h -0.654366 v -0.945225 c 0,-0.911267 -0.01315,-0.945182 -0.363683,-0.945182 -0.333887,0 -0.363683,0.05345 -0.363683,0.654367 0,0.557443 -0.04382,0.654411 -0.290947,0.654411 -0.270351,0 -0.290946,-0.09683 -0.290946,-1.381514 0,-1.376606 -0.0013,-1.381426 -0.363683,-1.381426 -0.333887,0 -0.363682,-0.05345 -0.363682,-0.654366 0,-0.557443 -0.04382,-0.65441 -0.290947,-0.65441 -0.272981,0 -0.290946,-0.09683 -0.290946,-1.599592 v -1.599547 h -0.363683 -0.363683 v -2.981061 c 0,-2.884094 -0.0088,-2.981061 -0.290946,-2.981061 -0.21339,0 -0.290946,-0.09683 -0.290946,-0.363683 0,-0.266409 0.07755,-0.363683 0.290946,-0.363683 0.194109,0 0.290946,-0.09683 0.290946,-0.290946 0,-0.193672 -0.09683,-0.290947 -0.290946,-0.290947 -0.238805,0 -0.291385,-0.09771 -0.292699,-0.545306 -0.0013,-0.299709 -0.03505,-0.708918 -0.07449,-0.908856 -0.03943,-0.199807 -0.03505,-0.281745 0.01315,-0.181842 0.0596,0.125318 0.488825,0.181842 1.383091,0.181842 1.199672,0 1.296596,-0.02191 1.296596,-0.290946 0,-0.248006 -0.09683,-0.290947 -0.654367,-0.290947 -0.601041,0 -0.654366,-0.03067 -0.654366,-0.3636823 0,-0.3505377 0.03505,-0.3636838 0.945224,-0.3636838 0.883356,0 0.945182,-0.021914 0.944875,-0.3273145 -3.5e-4,-0.3185512 0.03505,-0.3259997 1.308733,-0.2804299 l 1.309083,0.046884 V 8.3909226 c 0,-0.3461561 0.04863,-0.3737609 0.654367,-0.3737609 0.581717,0 0.654366,-0.035051 0.654278,-0.3273147 -4.3e-5,-0.3023393 0.05477,-0.3233711 0.727103,-0.2769248 0.651168,0.045133 0.727191,0.021914 0.727191,-0.2458149 0,-0.4167021 0.231355,-0.5146768 1.117602,-0.4736202 0.764742,0.035051 0.772805,0.030668 0.772805,-0.3877825 0,-0.3106644 0.09683,-0.467617 0.363683,-0.5891227 0.321179,-0.1463492 0.363682,-0.1318893 0.363682,0.1218123 0,0.2572068 0.100347,0.2878785 0.945226,0.2878785 0.911267,0 0.945181,-0.013148 0.945181,-0.3636827 0,-0.2664084 -0.07755,-0.3636827 -0.290946,-0.3636827 -0.353606,0 -0.402242,-0.5078852 -0.0609,-0.6388121 0.126632,-0.048634 0.879061,-0.088068 1.672284,-0.088068 1.345365,0 1.442288,-0.021914 1.442288,-0.2909464 0,-0.247568 0.09683,-0.2909464 0.654367,-0.2909464 h 0.65441 v 0.6544094 0.654367 h 2.32665 2.326651 V 5.0352281 4.6715443 h -1.672328 c -1.57536,0 -1.672328,-0.017531 -1.672328,-0.2909464 0,-0.2852499 0.09683,-0.2909464 4.944204,-0.2909464 H 60.32856 V 3.7259688 3.3622861 h 4.653344 c 4.039335,0 4.653302,-0.030668 4.653302,-0.2182101 0,-0.1218112 -0.145035,-0.2300402 -0.327314,-0.2445001 -1.027602,-0.082381 3.200365,-0.1840322 5.816692,-0.1393389 2.91367,0.049515 3.090122,0.068351 3.090122,0.3273145 0,0.2532645 0.130137,0.2747346 1.672284,0.2747346 1.575317,0 1.672284,-0.017531 1.672284,-0.2909464 0,-0.1936721 0.09683,-0.2909464 0.290947,-0.2909464 0.318113,0 0.400927,-0.3676261 0.109101,-0.4853199 -0.0999,-0.039434 0.315045,-0.078433 0.922396,-0.085001 0.607262,-0.00881 1.899695,-0.054333 2.871956,-0.1064803 l 1.767806,-0.095083 v 0.3860305 0.3860293 h 1.599591 1.599591 V 2.416885 2.0532023 h 2.326651 c 1.866526,0 2.326695,-0.039434 2.326695,-0.1980538 0,-0.2300413 0.697001,-0.3045297 4.944162,-0.5262013 1.55959,-0.0815 3.17916,-0.1857853 3.59906,-0.2313551 0.6325,-0.069232 0.76343,-0.043817 0.76343,0.1454737 0,0.1739541 0.15643,0.2287254 0.65441,0.2287254 0.46017,0 0.65437,-0.059597 0.65437,-0.2011205 0,-0.2107616 0.42634,-0.37507575 0.98155,-0.37858095 0.23091,-0.00134 0.32731,0.083685 0.32731,0.28875515 0,0.2633415 0.0968,0.2909463 1.01792,0.2909463 0.98887,0 1.01796,-0.00881 1.01796,-0.3636827 0,-0.26640845 0.0775,-0.36368275 0.29095,-0.36368275 0.21339,0 0.29095,0.09728 0.29095,0.36368275 0,0.3338865 0.0534,0.3636827 0.65432,0.3636827 0.60108,0 0.65436,-0.030668 0.65436,-0.3636827 V 0.74442575 h 2.03588 c 1.66708,0 2.03584,-0.039434 2.03584,-0.2076936 0,-0.3036542 1.52826,-0.4589865 3.96257,-0.4031188 1.16576,0.026285 1.2724,0.053452 1.2724,0.319866 0,0.2694753 0.0968,0.2909464 1.30878,0.2909464 1.21181,0 1.30874,-0.021914 1.30874,-0.2909464 0,-0.2703529 0.0968,-0.2909464 1.38146,-0.2909464 1.37661,0 1.38147,-0.00134 1.38147,-0.363684 v -0.363682 h 2.25397 2.25395 v 0.363682 c 0,0.2909466 0.0727,0.363684 0.36368,0.363684 0.29095,0 0.36368,-0.072734 0.36368,-0.363684 0,-0.333886 0.0534,-0.363682 0.65438,-0.363682 0.60107,0 0.6544,0.03067 0.6544,0.363682 0,0.3610544 0.009,0.363684 1.30874,0.363684 h 1.30878 v 0.6544094 c 0,0.60104105 0.0307,0.65436715 0.36368,0.65436715 0.2664,0 0.36368,0.077552 0.36368,0.2909464 0,0.193672 0.0968,0.2909464 0.29095,0.2909464 0.21338,0 0.29094,0.09728 0.29094,0.3636827 0,0.3505377 -0.035,0.3636827 -0.94523,0.3636827 -0.84825,0 -0.94517,0.030668 -0.94517,0.2909464 0,0.193672 0.0968,0.2909464 0.29094,0.2909464 0.21339,0 0.29095,0.096834 0.29095,0.3636827 0,0.2909464 0.0727,0.3636838 0.36368,0.3636838 0.26641,0 0.36369,0.077552 0.36369,0.2909464 0,0.1936721 0.0968,0.2909464 0.29094,0.2909464 0.21339,0 0.29095,0.096834 0.29095,0.3636827 0,0.2909464 0.0727,0.3636827 0.36368,0.3636827 0.36105,0 0.36368,0.00881 0.36368,1.3087329 0,1.2990932 -0.002,1.3087766 -0.36368,1.3087766 -0.26685,0 -0.36368,-0.077552 -0.36368,-0.2909465 0,-0.1936721 -0.0968,-0.2909464 -0.29095,-0.2909464 -0.21339,0 -0.29094,-0.09728 -0.29094,-0.3636827 0,-0.3610542 -0.009,-0.3636827 -1.30874,-0.3636827 h -1.30878 v 0.6544094 c 0,0.601041 -0.0307,0.6543671 -0.36368,0.6543671 -0.35053,0 -0.36368,-0.035051 -0.36368,-0.9451819 V 6.1257057 h -0.65442 c -0.55739,0 -0.65436,0.043817 -0.65436,0.2909463 0,0.2629033 -0.0968,0.2909464 -1.01792,0.2909464 -0.92095,0 -1.01792,-0.026285 -1.01792,-0.2909464 0,-0.2694752 -0.0973,-0.2909463 -1.30872,-0.2909463 -1.21181,0 -1.30878,0.021914 -1.30878,0.2909463 0,0.2133902 0.0968,0.2909464 0.36368,0.2909464 0.33388,0 0.36368,0.053452 0.36368,0.6544106 0,0.601041 -0.0307,0.6543671 -0.36368,0.6543671 -0.33389,0 -0.36368,0.053452 -0.36368,0.6543659 v 0.6543659 h -1.30874 -1.30877 V 8.670742 8.0163761 h -0.65433 -0.65441 V 8.670742 c 0,0.6010409 -0.0307,0.6543659 -0.36368,0.6543659 -0.26641,0 -0.36368,-0.077552 -0.36368,-0.2909464 0,-0.1936721 -0.0968,-0.2909452 -0.29095,-0.2909452 -0.21339,0 -0.29095,-0.096834 -0.29095,-0.3636839 V 8.0158497 h -2.03583 -2.03584 v 0.3636827 c 0,0.3391459 0.0486,0.3636839 0.7271,0.3636839 h 0.72706 v 0.6543223 0.6544094 h -2.32665 -2.32666 V 9.6882653 c 0,-0.3338865 0.0534,-0.3636827 0.65437,-0.3636827 0.55744,0 0.65437,-0.043817 0.65437,-0.2909464 0,-0.2480051 -0.0968,-0.2909463 -0.65437,-0.2909463 -0.60104,0 -0.65437,-0.030668 -0.65437,-0.3636827 0,-0.3610542 0.009,-0.3636827 1.30874,-0.3636827 1.21181,0 1.30877,-0.021914 1.30877,-0.2909466 0,-0.2480062 0.0968,-0.2909463 0.65437,-0.2909463 0.60104,0 0.65437,-0.030668 0.65437,-0.3636839 V 6.706065 h -2.32666 -2.32669 v 0.3636827 c 0,0.3338876 -0.0534,0.3636839 -0.65437,0.3636839 -0.55743,0 -0.65436,0.043817 -0.65436,0.2909463 0,0.2133892 -0.0968,0.2909466 -0.36369,0.2909466 -0.29094,0 -0.36368,0.072734 -0.36368,0.3636827 0,0.2664084 -0.0775,0.3636827 -0.29095,0.3636827 -0.248,0 -0.29095,-0.096834 -0.29095,-0.6543659 0,-0.6010857 -0.0307,-0.6544107 -0.36368,-0.6544107 -0.26685,0 -0.36368,0.077552 -0.36368,0.2909464 0,0.2694754 -0.0968,0.2909465 -1.30878,0.2909465 -1.29904,0 -1.30877,0.00245 -1.30877,0.3636827 0,0.2664084 -0.0776,0.3636827 -0.29095,0.3636827 -0.19367,0 -0.29094,0.096834 -0.29094,0.2909464 0,0.2133901 -0.0968,0.2909464 -0.36369,0.2909464 -0.33388,0 -0.36368,-0.053452 -0.36368,-0.6543659 v -0.654367 h -0.65436 c -0.60109,0 -0.65442,0.030668 -0.65442,0.3636827 V 8.743698 h -4.28979 c -4.192832,0 -4.289755,0.00881 -4.289755,0.2909464 0,0.2629033 -0.09683,0.2909464 -1.017961,0.2909464 -0.988824,0 -1.017918,0.00881 -1.017918,0.3636827 V 10.052956 H 83.521135 c -10.445763,0 -10.54273,0.0025 -10.54273,0.290947 0,0.273858 -0.09683,0.290946 -1.672284,0.290946 h -1.672284 v 0.363683 0.363682 h -2.326695 -2.326651 v -0.363685 -0.363682 h -3.998979 -3.998935 v 0.363682 0.363683 h -1.963143 -1.963099 v -0.363683 c 0,-0.353166 -0.03067,-0.363682 -1.017918,-0.363682 -0.988867,0 -1.017918,0.0088 -1.017918,0.363682 0,0.350538 -0.03505,0.363683 -0.945225,0.363683 -0.911267,0 -0.945225,0.01315 -0.945225,0.363684 0,0.333886 -0.05346,0.363683 -0.654367,0.363683 -0.557443,0 -0.654366,0.04382 -0.654366,0.290946 0,0.248005 -0.09683,0.290946 -0.654367,0.290946 h -0.648363 v 0.654366 0.654367 h -2.326563 -2.326651 v 0.65441 0.654367 h 0.945181 c 0.911311,0 0.945225,0.01315 0.945225,0.363683 0,0.290946 0.07273,0.363682 0.363684,0.363682 0.266409,0 0.363683,0.07755 0.363683,0.290947 0,0.263341 -0.09683,0.290946 -1.017918,0.290946 -0.988824,0 -1.017918,0.0088 -1.017918,0.363684 0,0.360615 0.0088,0.363683 1.308733,0.363683 1.211808,0 1.308776,0.0219 1.308776,0.290946 0,0.251949 0.09683,0.290946 0.72706,0.290946 0.630134,0 0.727102,-0.03943 0.727102,-0.290946 0,-0.248006 0.09683,-0.290946 0.654367,-0.290946 0.557443,0 0.654366,0.04382 0.654366,0.290946 0,0.276487 0.09683,0.290946 1.963143,0.290946 1.866176,0 1.963099,-0.01315 1.963099,-0.290946 0,-0.283936 0.09683,-0.290946 3.998979,-0.290946 h 3.99898 v -0.363683 -0.363684 h 6.616444 c 6.519521,0 6.616445,-0.0043 6.616445,-0.290946 0,-0.285689 0.09683,-0.290947 5.235018,-0.290947 h 5.235019 v -0.363682 -0.363683 h 6.325586 c 6.228706,0 6.325629,-0.0044 6.325629,-0.290947 0,-0.286126 0.09683,-0.290946 6.252945,-0.290946 h 6.25289 v 1.308733 1.308776 h -0.65437 -0.65436 v 0.654366 c 0,0.601041 0.0307,0.654367 0.36368,0.654367 h 0.36368 v 1.963143 c 0,1.866132 0.0132,1.9631 0.29095,1.9631 0.21339,0 0.29095,0.09683 0.29095,0.363682 0,0.266409 -0.0775,0.363683 -0.29095,0.363683 -0.24801,0 -0.29095,0.09683 -0.29095,0.654372 0,0.557437 0.0438,0.654361 0.29095,0.654361 0.248,0 0.29095,0.09683 0.29095,0.654415 0,0.600996 0.0307,0.654322 0.36368,0.654322 0.29095,0 0.36368,0.07273 0.36368,0.363683 0,0.290947 -0.0727,0.363683 -0.36368,0.363683 -0.26641,0 -0.36368,0.07755 -0.36368,0.290946 0,0.279993 -0.0968,0.290947 -2.61751,0.290947 h -2.61751 v 0.363682 c 0,0.26641 0.0776,0.363684 0.29094,0.363684 0.19368,0 0.29095,0.09683 0.29095,0.290947 0,0.269475 -0.0968,0.290946 -1.30873,0.290946 -1.2991,0 -1.30878,0.0026 -1.30878,0.363683 0,0.266846 -0.0776,0.363682 -0.29095,0.363682 -0.19367,0 -0.29094,0.09683 -0.29094,0.290947 0,0.21339 -0.0968,0.290946 -0.36369,0.290946 -0.2664,0 -0.36368,-0.07755 -0.36368,-0.290946 0,-0.193672 -0.09681,-0.290947 -0.290945,-0.290947 -0.24801,0 -0.29095,0.09683 -0.29095,0.654367 0,0.557442 0.0438,0.654366 0.29095,0.654366 0.248,0 0.290945,0.09683 0.290945,0.654366 0,0.557443 -0.04381,0.654411 -0.290945,0.654411 -0.26948,0 -0.29095,0.09683 -0.29095,1.308733 v 1.308776 h 0.654415 c 0.60108,0 0.65437,0.03067 0.65437,0.363683 v 0.363684 h 1.59959 1.59959 V 34.848993 34.48531 h 5.96212 c 5.86511,0 5.96204,-0.0043 5.96204,-0.290946 0,-0.262904 0.0968,-0.290947 1.01795,-0.290947 0.92096,0 1.01792,0.02629 1.01792,0.290947 0,0.263341 0.0968,0.290946 1.01792,0.290946 0.92096,0 1.01788,-0.02628 1.01788,-0.290946 0,-0.248005 0.0973,-0.290947 0.65441,-0.290947 0.60104,0 0.65436,-0.03067 0.65436,-0.363682 0,-0.350538 0.035,-0.363683 0.94518,-0.363683 h 0.94522 v 0.654366 c 0,0.601084 0.0307,0.65441 0.3637,0.65441 0.33388,0 0.36368,-0.05345 0.36368,-0.65441 v -0.65437 h 0.6544 0.65438 v 0.654365 0.654411 h 0.65436 0.65436 v 1.017918 c 0,0.920951 -0.0263,1.017874 -0.29095,1.017874 -0.19367,0 -0.29093,0.09728 -0.29093,0.290946 0,0.193672 0.0968,0.290946 0.29093,0.290946 0.2134,0 0.29095,0.09683 0.29095,0.363684 0,0.333887 -0.0534,0.363683 -0.65436,0.363683 -0.60105,0 -0.65436,0.03067 -0.65436,0.363683 0,0.266408 -0.0776,0.363682 -0.29095,0.363682 -0.24801,0 -0.29095,0.09683 -0.29095,0.654323 0,0.557443 0.0438,0.65441 0.29095,0.65441 0.24756,0 0.29095,0.09683 0.29095,0.654367 0,0.601041 0.0307,0.654366 0.36368,0.654366 0.35053,0 0.36368,0.03505 0.36368,0.945226 0,0.848257 0.0307,0.945181 0.29095,0.945181 0.19366,0 0.29094,-0.09683 0.29094,-0.290946 0,-0.21339 0.0968,-0.290946 0.36369,-0.290946 0.26684,0 0.36368,0.07755 0.36368,0.290946 0,0.193672 0.0968,0.290946 0.29095,0.290946 0.26333,0 0.29094,0.09683 0.29094,1.017922 v 1.017961 h -0.65437 c -0.60109,0 -0.65441,0.03067 -0.65441,0.363684 0,0.333887 0.0534,0.363683 0.65441,0.363683 0.55741,0 0.65437,0.04382 0.65437,0.290946 0,0.213391 0.0968,0.290947 0.36368,0.290947 0.35317,0 0.36369,0.03067 0.36369,1.017918 0,0.920994 0.0263,1.017917 0.29094,1.017917 0.26115,0 0.29095,0.09683 0.29095,0.945182 0,0.91131 0.0132,0.945225 0.36368,0.945225 0.36237,0 0.36368,0.0043 0.36368,1.381469 0,1.284502 0.0219,1.38147 0.29095,1.38147 0.248,0 0.29095,0.09683 0.29095,0.654366 0,0.601041 0.0307,0.654367 0.36368,0.654367 0.2664,0 0.36368,0.07755 0.36368,0.290946 0,0.163438 0.0973,0.290946 0.22172,0.290946 0.3593,0 0.53597,0.713783 0.51257,2.072204 -0.0219,1.193055 -0.002,1.272364 0.27605,1.272364 0.2835,0 0.29796,0.08325 0.29796,1.672286 v 1.672327 h 0.36368 c 0.33389,0 0.36368,0.05345 0.36368,0.654366 0,0.557443 0.0438,0.654367 0.29095,0.654367 0.2629,0 0.29095,0.09728 0.29095,1.017918 0,0.988824 0.009,1.017918 0.36368,1.017918 0.2664,0 0.36368,0.07755 0.36368,0.290946 0,0.248006 -0.0968,0.290946 -0.65437,0.290946 -0.60108,0 -0.65436,0.03067 -0.65436,0.363684 0,0.333886 0.0534,0.363683 0.65436,0.363683 h 0.65437 v 0.65441 c 0,0.557398 0.0438,0.654366 0.29095,0.654366 0.19367,0 0.29095,0.09683 0.29095,0.290946 0,0.213391 0.0968,0.290947 0.36368,0.290947 h 0.36368 v 1.672284 c 0,1.575317 0.0175,1.672284 0.29095,1.672284 0.21338,0 0.29095,0.09683 0.29095,0.363684 0,0.339144 0.0486,0.363682 0.72709,0.363682 0.63014,0 0.72711,0.03943 0.72711,0.290947 0,0.251948 -0.0968,0.290946 -0.72711,0.290946 h -0.72709 v 1.017918 c 0,0.988867 0.009,1.017917 0.36368,1.017917 0.2664,0 0.36368,0.07756 0.36368,0.290947 0,0.211638 0.0968,0.290946 0.3558,0.290946 h 0.35579 l 0.0438,2.034303 c 0.0395,1.806102 0.002,2.181089 -0.31943,3.343736 -0.34484,1.242964 -0.38384,1.309522 -0.76347,1.31031 -0.37683,6.57e-4 -0.40005,0.03943 -0.40005,0.655199 v 0.654367 h -0.65437 c -0.60108,0 -0.65436,0.03067 -0.65436,0.363683 0,0.266408 -0.0775,0.363683 -0.29095,0.363683 -0.19367,0 -0.29095,0.09728 -0.29095,0.290946 0,0.21339 -0.0973,0.290946 -0.36368,0.290946 -0.29095,0 -0.36368,0.07273 -0.36368,0.363683 0,0.266408 -0.0775,0.363683 -0.29095,0.363683 -0.248,0 -0.29095,0.09683 -0.29095,0.65441 v 0.654367 h -1.01796 c -0.92094,0 -1.01791,0.02629 -1.01791,0.290946 0,0.21339 -0.0968,0.290946 -0.36368,0.290946 -0.29095,0 -0.3637,0.07273 -0.3637,0.363684 0,0.360616 -0.009,0.363682 -1.30872,0.363682 -1.21181,0 -1.30878,0.02191 -1.30878,0.290947 0,0.26115 -0.0968,0.290946 -0.94518,0.290946 -0.83047,0 -0.94522,0.03505 -0.94522,0.275172 0,0.376829 -0.27036,0.4518 -1.62844,0.4518 -1.09683,0 -1.16377,0.01753 -1.09236,0.290946 0.0622,0.237927 0.004,0.290947 -0.31766,0.290947 -0.21647,0 -0.45571,0.04908 -0.53169,0.109101 -0.0758,0.06003 -0.51442,0.08938 -0.97432,0.06573 z m -6.79821,-6.718276 c 0,-0.678597 0.0263,-0.72706 0.36369,-0.72706 0.35054,0 0.36369,-0.03505 0.36369,-0.945225 0,-0.911266 -0.0132,-0.945181 -0.36369,-0.945181 -0.33389,0 -0.36369,0.05302 -0.36369,0.654366 v 0.654367 h -0.65436 c -0.55745,0 -0.65441,0.04382 -0.65441,0.290947 0,0.21339 0.0968,0.290946 0.36369,0.290946 0.33913,0 0.36368,0.04863 0.36368,0.727059 0,0.630179 0.0395,0.727103 0.29095,0.727103 0.25195,0 0.29095,-0.09727 0.29095,-0.727103 z m 19.92207,0.363683 c 0,-0.290947 -0.0727,-0.363683 -0.36368,-0.363683 -0.29094,0 -0.36368,-0.07273 -0.36368,-0.363684 0,-0.333886 0.0534,-0.363682 0.65441,-0.363682 0.5574,0 0.65437,-0.04382 0.65437,-0.290947 0,-0.247567 -0.0968,-0.290946 -0.65437,-0.290946 -0.55744,0 -0.65441,0.04382 -0.65441,0.290946 0,0.193672 -0.0968,0.290947 -0.29095,0.290947 -0.21338,0 -0.29094,0.09728 -0.29094,0.363682 0,0.290947 -0.0727,0.363684 -0.36369,0.363684 -0.29094,0 -0.36368,0.07273 -0.36368,0.363683 0,0.353166 0.0307,0.363683 1.01792,0.363683 0.98883,0 1.01792,-0.0088 1.01792,-0.363683 z m -21.81252,-2.326695 c 0,-0.601041 -0.0307,-0.654367 -0.36368,-0.654367 -0.33388,0 -0.36368,0.05302 -0.36368,0.654367 0,0.601041 0.0307,0.654366 0.36368,0.654366 0.3339,0 0.36368,-0.05345 0.36368,-0.654366 z m 2.61752,-5.016896 c 0,-0.213391 -0.0968,-0.290947 -0.36369,-0.290947 -0.26641,0 -0.36368,0.07755 -0.36368,0.290947 0,0.21339 0.0972,0.290946 0.36368,0.290946 0.26642,0 0.36369,-0.07755 0.36369,-0.290946 z m 14.54166,0 c 0,-0.193673 0.0968,-0.290947 0.29095,-0.290947 0.27868,0 0.29095,-0.09683 0.29095,-2.326651 v -2.326695 h -0.65438 -0.65436 v 2.61751 2.617509 h 0.36368 c 0.26685,0 0.36369,-0.07755 0.36369,-0.290946 z m 7.27086,-0.654368 c 0,-0.290946 -0.0727,-0.363682 -0.36368,-0.363682 -0.29095,0 -0.36369,0.07273 -0.36369,0.363682 0,0.290947 0.0727,0.363684 0.36369,0.363684 0.29094,0 0.36368,-0.07273 0.36368,-0.363684 z m -22.53959,-3.926242 c 0,-0.266408 -0.0776,-0.363683 -0.29094,-0.363683 -0.24757,0 -0.29094,-0.09683 -0.29094,-0.654365 0,-0.601041 -0.0307,-0.654367 -0.36369,-0.654367 -0.33389,0 -0.36368,0.05345 -0.36368,0.654367 0,0.601041 0.0307,0.654365 0.36368,0.654365 0.29095,0 0.36369,0.07273 0.36369,0.363683 0,0.26641 0.0775,0.363684 0.29094,0.363684 0.21339,0 0.29094,-0.09728 0.29094,-0.363684 z m -0.58167,-3.344568 c 0,-0.290946 -0.0727,-0.363683 -0.36368,-0.363683 -0.29095,0 -0.36368,0.07273 -0.36368,0.363683 0,0.290946 0.0727,0.363683 0.36368,0.363683 0.29095,0 0.36368,-0.07273 0.36368,-0.363683 z m 19.19501,-4.944204 c 0,-0.601041 -0.0307,-0.654366 -0.36368,-0.654366 -0.33388,0 -0.36368,0.05345 -0.36368,0.654366 0,0.601085 0.0307,0.654366 0.36368,0.654366 0.33389,0 0.36368,-0.05345 0.36368,-0.654366 z m -7.27085,-7.634363 c 0,-0.21339 -0.0973,-0.290946 -0.36369,-0.290946 -0.2664,0 -0.36368,0.07755 -0.36368,0.290946 0,0.213391 0.0968,0.290947 0.36368,0.290947 0.26642,0 0.36369,-0.07755 0.36369,-0.290947 z m -1.30873,-1.672284 c 0,-0.557442 0.0438,-0.65441 0.29094,-0.65441 0.19368,0 0.29095,-0.09683 0.29095,-0.290946 0,-0.213391 0.0968,-0.290947 0.36368,-0.290947 0.36237,0 0.36369,-0.0043 0.36369,-1.381469 0,-1.376606 -0.001,-1.381469 -0.36369,-1.381469 -0.2664,0 -0.36368,-0.07755 -0.36368,-0.290947 0,-0.193672 -0.0973,-0.290946 -0.29095,-0.290946 -0.248,0 -0.29094,-0.09683 -0.29094,-0.654366 0,-0.601041 -0.0307,-0.654367 -0.36369,-0.654367 -0.33388,0 -0.36368,-0.05345 -0.36368,-0.654366 0,-0.601084 -0.0307,-0.654411 -0.36368,-0.654411 -0.35317,0 -0.36369,-0.03067 -0.36369,-1.017874 v -1.017917 h -1.59954 -1.5996 v 0.363682 c 0,0.290947 -0.0727,0.363683 -0.36368,0.363683 -0.26641,0 -0.36368,0.07755 -0.36368,0.290947 0,0.21339 0.0968,0.290946 0.36368,0.290946 0.29095,0 0.36368,0.07273 0.36368,0.363683 0,0.266409 0.0776,0.363682 0.29095,0.363682 0.27298,0 0.29095,0.09683 0.29095,1.599636 v 1.599548 h 0.65441 0.65437 v 1.017918 c 0,0.988867 0.009,1.017918 0.36368,1.017918 0.35317,0 0.36368,0.03067 0.36368,1.017917 0,0.920995 0.0263,1.017918 0.29095,1.017918 0.19367,0 0.29095,0.09683 0.29095,0.290947 0,0.251949 0.0968,0.290946 0.72706,0.290946 h 0.72709 z m 2.6175,-4.289793 c 0,-0.21339 -0.0968,-0.290946 -0.36368,-0.290946 -0.26641,0 -0.36368,0.07755 -0.36368,0.290946 0,0.213389 0.0973,0.290946 0.36368,0.290946 0.26642,0 0.36368,-0.07755 0.36368,-0.290946 z M 104.68893,48.37778 c 0,-0.601041 -0.0307,-0.654366 -0.36368,-0.654366 -0.33389,0 -0.36368,0.05302 -0.36368,0.654366 0,0.601041 0.0307,0.654367 0.36368,0.654367 0.33389,0 0.36368,-0.05345 0.36368,-0.654367 z m -0.72706,-9.888368 v -0.654367 h -0.65436 -0.65441 v 0.654367 0.654366 h 0.65441 0.65436 z M 93.491832,37.835045 c 0,-0.678597 -0.02629,-0.727059 -0.363683,-0.727059 -0.339145,0 -0.363682,0.04863 -0.363682,0.727059 0,0.678641 0.02629,0.727103 0.363682,0.727103 0.339145,0 0.363683,-0.04863 0.363683,-0.727103 z M 84.76686,36.817127 c 0,-0.248005 -0.09683,-0.290946 -0.654367,-0.290946 -0.557443,0 -0.654366,0.04382 -0.654366,0.290946 0,0.248006 0.09683,0.290946 0.654366,0.290946 0.557486,0 0.654367,-0.04382 0.654367,-0.290946 z m 2.035835,-0.654366 c 0,-0.266408 -0.07755,-0.363683 -0.290947,-0.363683 -0.21339,0 -0.290946,0.09683 -0.290946,0.363683 0,0.266408 0.07755,0.363683 0.290946,0.363683 0.213391,0 0.290947,-0.09683 0.290947,-0.363683 z M 83.458127,35.50835 c 0,-0.193672 -0.09683,-0.290946 -0.290947,-0.290946 -0.19411,0 -0.290946,0.09683 -0.290946,0.290946 0,0.193673 0.09683,0.290947 0.290946,0.290947 0.193672,0 0.290947,-0.09683 0.290947,-0.290947 z M 121.8481,34.199618 c 0,-0.193673 -0.0968,-0.290947 -0.29094,-0.290947 -0.19367,0 -0.29094,0.09683 -0.29094,0.290947 0,0.193672 0.0968,0.290946 0.29094,0.290946 0.19368,0 0.29094,-0.09683 0.29094,-0.290946 z M 95.382283,31.218601 v -0.654366 h -0.654411 c -0.557398,0 -0.654322,0.04382 -0.654322,0.290946 0,0.213389 0.09683,0.290946 0.363683,0.290946 0.290946,0 0.363682,0.07273 0.363682,0.363683 0,0.266847 0.07755,0.363683 0.290947,0.363683 0.247568,0 0.290946,-0.09683 0.290946,-0.654366 z m 2.035835,0.290946 c 0,-0.266408 0.07756,-0.363683 0.290946,-0.363683 0.193672,0 0.290947,-0.09683 0.290947,-0.290946 0,-0.193672 -0.09728,-0.290947 -0.290947,-0.290947 -0.213389,0 -0.290946,-0.09683 -0.290946,-0.363682 0,-0.290947 -0.07273,-0.363684 -0.363683,-0.363684 -0.353166,0 -0.363682,0.03067 -0.363682,1.017918 0,0.988823 0.0088,1.017918 0.363682,1.017918 0.290947,0 0.363683,-0.07273 0.363683,-0.363683 z M 103.96187,24.9658 c 0,-0.333888 -0.0534,-0.363683 -0.65436,-0.363683 -0.60109,0 -0.65441,0.03067 -0.65441,0.363683 0,0.333887 0.0534,0.363682 0.65441,0.363682 0.60104,0 0.65436,-0.03067 0.65436,-0.363682 z m 2.03584,0 c 0,-0.333888 -0.0534,-0.363683 -0.65441,-0.363683 -0.60104,0 -0.65437,0.03067 -0.65437,0.363683 0,0.333887 0.0535,0.363682 0.65437,0.363682 0.60108,0 0.65441,-0.03067 0.65441,-0.363682 z m -0.58167,-4.653306 c 0,-0.266848 0.0775,-0.363684 0.29094,-0.363684 0.24801,0 0.29095,-0.09683 0.29095,-0.654366 0,-0.601041 0.0307,-0.654365 0.36368,-0.654365 0.33389,0 0.36369,-0.05345 0.36369,-0.654368 0,-0.601084 -0.0307,-0.654365 -0.36369,-0.654365 -0.29094,0 -0.36368,-0.07273 -0.36368,-0.363683 v -0.363684 h -5.96212 -5.962085 v 0.654367 0.654414 h 1.017962 c 0.98878,0 1.017874,0.0088 1.017874,0.363684 v 0.363682 h 3.271874 3.271885 v 0.654366 c 0,0.601041 0.0307,0.654367 0.36368,0.654367 0.29095,0 0.36368,0.07273 0.36368,0.363683 0,0.353166 0.0307,0.363683 1.01792,0.363683 0.98882,0 1.01792,-0.0088 1.01792,-0.363683 z M 83.458127,19.294533 v -0.654368 h -2.61751 -2.617509 v 0.654368 0.654365 h 2.617509 2.61751 z M 34.598111,16.386208 v -2.981061 h -0.363683 c -0.290947,0 -0.363683,-0.07273 -0.363683,-0.363683 0,-0.266408 -0.07756,-0.363683 -0.290946,-0.363683 -0.21339,0 -0.290947,0.09728 -0.290947,0.363683 0,0.266408 0.07755,0.363683 0.290947,0.363683 0.19411,0 0.290946,0.09683 0.290946,0.290946 0,0.193672 -0.09683,0.290947 -0.290946,0.290947 -0.21339,0 -0.290947,0.09683 -0.290947,0.363682 0,0.26641 0.07755,0.363683 0.290947,0.363683 0.278677,0 0.290946,0.09683 0.290946,2.326651 v 2.326695 h 0.363683 0.363683 z m 4.507915,0.218209 c 0,-1.211808 -0.02191,-1.308776 -0.290945,-1.308776 -0.269477,0 -0.290947,0.09683 -0.290947,1.308776 0,1.211814 0.02191,1.308738 0.290947,1.308738 0.269475,0 0.290945,-0.09683 0.290945,-1.308738 z M 33.871007,11.73295 c 0,-0.266409 -0.07755,-0.363683 -0.290946,-0.363683 -0.213389,0 -0.290947,0.09683 -0.290947,0.363683 0,0.266409 0.07756,0.363684 0.290947,0.363684 0.21339,0 0.290946,-0.09683 0.290946,-0.363684 z M 125.91978,8.3883381 c 0,-0.2909464 -0.0727,-0.3636838 -0.36369,-0.3636838 -0.29094,0 -0.36368,0.072734 -0.36368,0.3636838 0,0.2909464 0.0727,0.3636827 0.36368,0.3636827 0.29095,0 0.36369,-0.072734 0.36369,-0.3636827 z M 41.141862,7.7336643 c 0,-0.1936721 -0.09683,-0.2909464 -0.290946,-0.2909464 -0.194111,0 -0.290947,0.096834 -0.290947,0.2909464 0,0.1936722 0.09683,0.2909465 0.290947,0.2909465 0.19411,0 0.290946,-0.096834 0.290946,-0.2909465 z m 3.926243,0 c 0,-0.2480052 -0.09683,-0.2909464 -0.654366,-0.2909464 -0.557443,0 -0.654367,0.043817 -0.654367,0.2909464 0,0.2475681 0.09683,0.2909465 0.654367,0.2909465 0.557398,0 0.654366,-0.043817 0.654366,-0.2909465 z M 62.372709,7.0792984 c 0,-0.3606159 -0.0088,-0.3636827 -1.308777,-0.3636827 -1.299048,0 -1.308733,0.00245 -1.308733,0.3636827 0,0.3610542 0.0088,0.3636827 1.308733,0.3636827 1.29905,0 1.308777,-0.00245 1.308777,-0.3636827 z M 125.91978,6.788352 V 6.1340296 h -2.03583 c -1.93888,0 -2.03585,0.013148 -2.03585,0.2909464 0,0.1936721 -0.0968,0.2909464 -0.29094,0.2909464 -0.19367,0 -0.29094,-0.096834 -0.29094,-0.2909464 0,-0.2133901 -0.0968,-0.2909464 -0.36369,-0.2909464 -0.33388,0 -0.36368,0.053452 -0.36368,0.6543224 v 0.6544105 h 2.6902 2.69025 z M 100.76269,1.7714987 c 0,-0.2480051 -0.0968,-0.2909464 -0.65436,-0.2909464 -0.557455,0 -0.654375,0.043817 -0.654375,0.2909464 0,0.2480052 0.0968,0.2909464 0.654375,0.2909464 0.55744,0 0.65436,-0.043817 0.65436,-0.2909464 z m 15.12334,0 c 0,-0.193672 -0.0968,-0.2909464 -0.29095,-0.2909464 -0.19367,0 -0.29095,0.096834 -0.29095,0.2909464 0,0.1936721 0.0968,0.2909464 0.29095,0.2909464 0.19368,0 0.29095,-0.096834 0.29095,-0.2909464 z m 4.65334,0 c 0,-0.2480051 -0.0968,-0.2909464 -0.65436,-0.2909464 -0.55744,0 -0.65441,0.043817 -0.65441,0.2909464 0,0.2480052 0.0968,0.2909464 0.65441,0.2909464 0.55739,0 0.65436,-0.043817 0.65436,-0.2909464 z m 12.65126,0 c 0,-0.2133901 -0.0973,-0.2909464 -0.36368,-0.2909464 -0.26685,0 -0.36368,0.077552 -0.36368,0.2909464 0,0.2133902 0.0968,0.2909464 0.36368,0.2909464 0.26641,0 0.36368,-0.077552 0.36368,-0.2909464 z m -6.68917,-1.30877645 c 0,-0.1936721 -0.0968,-0.2909464 -0.29095,-0.2909464 -0.19368,0 -0.29095,0.09728 -0.29095,0.2909464 0,0.1936721 0.0968,0.2909464 0.29095,0.2909464 0.19367,0 0.29095,-0.096834 0.29095,-0.2909464 z"
           id="path907"
           inkscape:connector-curvature="0" />
        <path
           style="display:inline;opacity:1;fill:none;fill-opacity:1;stroke:#800080;stroke-width:0.22314031;stroke-miterlimit:4;stroke-dasharray:0.22314025, 0.22314025;stroke-dashoffset:0;stroke-opacity:0"
           d="m 121.3755,90.214071 -0.83613,-0.04382 v -1.010644 c 0,-0.91372 -0.0263,-1.010644 -0.29094,-1.010644 -0.21339,0 -0.29094,-0.09683 -0.29094,-0.363683 0,-0.290946 -0.0727,-0.363683 -0.36368,-0.363683 -0.29095,0 -0.3637,0.07273 -0.3637,0.363683 0,0.266408 -0.0775,0.363683 -0.29094,0.363683 -0.21339,0 -0.29094,-0.09683 -0.29094,-0.363683 0,-0.290946 -0.0727,-0.363683 -0.36369,-0.363683 -0.29094,0 -0.36369,0.07273 -0.36369,0.363683 0,0.452807 -0.28963,0.468406 -0.67766,0.03505 -0.3672,-0.408814 -4.46581,-4.149534 -4.979,-4.544283 -0.27649,-0.212514 -0.36588,-0.398299 -0.33213,-0.690692 0.0395,-0.344403 -0.004,-0.400051 -0.32732,-0.400051 -0.36499,0 -0.37333,-0.0219 -0.37333,-1.017918 v -1.017917 h 1.01793 1.01792 v 0.654366 c 0,0.601084 0.0307,0.65441 0.36368,0.65441 0.35053,0 0.36368,-0.03505 0.36368,-0.945225 0,-0.911267 -0.0132,-0.945225 -0.36368,-0.945225 -0.3339,0 -0.36368,-0.05302 -0.36368,-0.654366 v -0.654367 h 0.65436 0.6544 v -0.727058 -0.727103 h -0.6544 c -0.5574,0 -0.65436,-0.04382 -0.65436,-0.290947 0,-0.21339 0.0968,-0.290946 0.36368,-0.290946 0.36105,0 0.36368,-0.0088 0.36368,-1.308733 0,-1.299093 -0.002,-1.308776 -0.36368,-1.308776 -0.29095,0 -0.36368,-0.07274 -0.36368,-0.363683 0,-0.266409 -0.0775,-0.363683 -0.29095,-0.363683 -0.24757,0 -0.29095,-0.09683 -0.29095,-0.654367 0,-0.601084 -0.0307,-0.65441 -0.36368,-0.65441 -0.26641,0 -0.36368,-0.07755 -0.36368,-0.290947 0,-0.213389 -0.0968,-0.290945 -0.3637,-0.290945 -0.29094,0 -0.36368,-0.07273 -0.36368,-0.363684 0,-0.266408 -0.0775,-0.363683 -0.29094,-0.363683 -0.21339,0 -0.29095,-0.09683 -0.29095,-0.363682 0,-0.333888 0.0534,-0.363683 0.65437,-0.363683 0.55739,0 0.65436,-0.04382 0.65436,-0.290946 0,-0.213391 -0.0968,-0.290947 -0.36368,-0.290947 -0.29095,0 -0.36368,-0.07273 -0.36368,-0.363684 0,-0.266408 -0.0775,-0.363682 -0.29095,-0.363682 -0.248,0 -0.29095,-0.09683 -0.29095,-0.654366 v -0.654411 h 1.01792 c 0.92096,0 1.01792,-0.02629 1.01792,-0.290946 0,-0.251949 -0.0968,-0.290947 -0.72706,-0.290947 h -0.7271 v -0.654361 -0.654411 h -0.65441 c -0.55739,0 -0.65436,0.04382 -0.65436,0.290946 0,0.248006 -0.0973,0.290947 -0.65437,0.290947 h -0.65437 v -0.654367 c 0,-0.601085 0.0307,-0.65441 0.36369,-0.65441 0.33388,0 0.36368,-0.05302 0.36368,-0.654322 0,-0.601086 -0.0307,-0.654411 -0.36368,-0.654411 -0.33389,0 -0.36369,-0.05345 -0.36369,-0.654367 0,-0.601041 0.0307,-0.654366 0.36369,-0.654366 0.29094,0 0.36368,-0.07273 0.36368,-0.363682 0,-0.290947 -0.0727,-0.363683 -0.36368,-0.363683 -0.26642,0 -0.36369,-0.07756 -0.36369,-0.290946 0,-0.193674 -0.0968,-0.290947 -0.29094,-0.290947 -0.27868,0 -0.29095,-0.09683 -0.29095,-2.326651 v -2.326651 h -0.65441 -0.65437 v 0.654367 0.654366 h -0.65436 -0.65441 v -1.017918 c 0,-0.988823 -0.009,-1.017917 -0.36369,-1.017917 -0.35053,0 -0.36368,-0.03505 -0.36368,-0.945225 0,-0.911224 -0.0132,-0.945182 -0.36368,-0.945182 h -0.36369 v -2.035844 -2.035837 h -0.65432 -0.65441 v -0.945225 c 0,-0.911266 0.0131,-0.945181 0.36368,-0.945181 0.29095,0 0.36369,-0.07273 0.36369,-0.363683 0,-0.333887 0.0534,-0.363683 0.65436,-0.363683 h 0.65437 v -1.308733 -1.308733 h -0.65437 c -0.60104,0 -0.65436,-0.03067 -0.65436,-0.363683 0,-0.333886 -0.0534,-0.363683 -0.65437,-0.363683 -0.55744,0 -0.65436,-0.04382 -0.65436,-0.290946 0,-0.21339 -0.0968,-0.290946 -0.36369,-0.290946 -0.29095,0 -0.36368,-0.07273 -0.36368,-0.363683 0,-0.266408 -0.0776,-0.363683 -0.29095,-0.363683 -0.19367,0 -0.29094,-0.09683 -0.29094,-0.290946 0,-0.21339 -0.0968,-0.290946 -0.36369,-0.290946 -0.29094,0 -0.36368,-0.07274 -0.36368,-0.363683 0,-0.361054 -0.009,-0.363684 -1.308785,-0.363684 -1.211806,0 -1.308729,-0.0219 -1.308729,-0.290946 0,-0.279992 -0.09727,-0.290947 -2.617509,-0.290947 h -2.61751 v -0.363683 c 0,-0.290946 -0.07273,-0.363682 -0.363684,-0.363682 -0.271228,0 -0.363682,-0.07668 -0.363682,-0.30234 0,-0.293136 -0.0574,-0.300586 -1.963319,-0.254578 l -1.963362,0.04732 1.75e-4,-0.763427 1.32e-4,-0.763428 h -1.013449 c -0.988823,0 -1.017873,0.0088 -1.017873,0.363683 0,0.35711 -0.02191,0.363683 -1.151429,0.363683 -0.633334,0 -1.238625,0.03505 -1.345146,0.07493 -0.153359,0.05915 -0.183594,-0.15336 -0.145911,-1.017961 l 0.04776,-1.092627 h -1.029398 c -1.001092,0 -1.029398,0.0088 -1.029398,0.363683 v 0.363683 H 78.222801 75.605335 V 36.15649 35.792807 h -2.035836 c -1.938912,0 -2.035835,-0.01315 -2.035835,-0.290946 0,-0.283497 -0.09683,-0.290946 -3.926287,-0.290946 h -3.926242 v -0.363683 c 0,-0.333888 -0.05345,-0.363683 -0.654366,-0.363683 -0.601041,0 -0.654367,0.03067 -0.654367,0.363683 v 0.363683 h -2.981061 -2.98106 v -0.363683 c 0,-0.290946 -0.07273,-0.363683 -0.363684,-0.363683 -0.266408,0 -0.363683,-0.07755 -0.363683,-0.290946 0,-0.269476 -0.09683,-0.290947 -1.308733,-0.290947 -1.211808,0 -1.308733,0.02191 -1.308733,0.290947 0,0.248005 -0.09683,0.290946 -0.654409,0.290946 h -0.654322 v -0.654401 -0.654367 h -2.617511 -2.617509 v -0.654366 -0.654411 h -0.727102 c -0.678598,0 -0.72706,0.02629 -0.72706,0.363683 0,0.266848 -0.07755,0.363684 -0.290947,0.363684 -0.213389,0 -0.290946,-0.09728 -0.290946,-0.363684 0,-0.333887 -0.05345,-0.363683 -0.654366,-0.363683 -0.601084,0 -0.654411,-0.03067 -0.654411,-0.363683 0,-0.290946 -0.07273,-0.363682 -0.363682,-0.363682 -0.266409,0 -0.363683,-0.07755 -0.363683,-0.290947 0,-0.248005 0.09683,-0.290946 0.654409,-0.290946 0.601041,0 0.654367,-0.03067 0.654367,-0.363683 0,-0.350537 -0.03505,-0.363684 -0.945225,-0.363684 -0.848258,0 -0.945225,-0.03067 -0.945225,-0.290946 0,-0.213389 -0.09683,-0.290945 -0.363683,-0.290945 -0.290946,0 -0.363683,-0.07273 -0.363683,-0.363684 0,-0.266408 -0.07755,-0.363683 -0.290946,-0.363683 -0.247568,0 -0.290946,-0.09683 -0.290946,-0.654366 0,-0.601041 -0.03067,-0.654367 -0.363683,-0.654367 -0.26641,0 -0.363684,-0.07755 -0.363684,-0.290946 0,-0.21339 -0.09683,-0.290946 -0.363683,-0.290946 -0.266408,0 -0.363682,0.07755 -0.363682,0.290946 0,0.193672 -0.09683,0.290946 -0.290947,0.290946 -0.21339,0 -0.290946,0.09683 -0.290946,0.363683 0,0.333888 -0.05345,0.363684 -0.654366,0.363684 -0.601041,0 -0.654367,-0.03067 -0.654367,-0.363684 0,-0.333886 -0.05345,-0.363683 -0.654366,-0.363683 h -0.654367 v -0.945229 c 0,-0.911266 -0.01315,-0.945225 -0.363683,-0.945225 -0.333887,0 -0.363682,0.05345 -0.363682,0.65441 0,0.557399 -0.04382,0.654367 -0.290947,0.654367 -0.270353,0 -0.290946,-0.09683 -0.290946,-1.381469 0,-1.376606 -0.0013,-1.381471 -0.363683,-1.381471 -0.333888,0 -0.363684,-0.05345 -0.363684,-0.654366 0,-0.557399 -0.04382,-0.654366 -0.290946,-0.654366 -0.279992,0 -0.290947,-0.09683 -0.290947,-2.617509 v -2.617509 h -0.363682 -0.363683 v -1.9631 c 0,-1.86622 -0.01315,-1.963143 -0.290946,-1.963143 -0.21339,0 -0.290947,-0.09683 -0.290947,-0.363684 0,-0.266408 0.07755,-0.363682 0.290947,-0.363682 0.193672,0 0.290946,-0.09683 0.290946,-0.290947 0,-0.193672 -0.09683,-0.290946 -0.290946,-0.290946 -0.230917,0 -0.291385,-0.09772 -0.292262,-0.472569 -6.56e-4,-0.259836 -0.04382,-0.717988 -0.09158,-1.017918 -0.085,-0.514808 -0.0688,-0.545305 0.292262,-0.545305 0.285688,0 0.382524,0.07362 0.382524,0.290947 0,0.263341 0.09683,0.290946 1.017918,0.290946 0.92095,0 1.017918,-0.02628 1.017918,-0.290946 0,-0.248006 -0.09683,-0.290947 -0.654411,-0.290947 -0.60104,0 -0.654367,-0.03067 -0.654367,-0.3636825 0,-0.2668467 0.07756,-0.3636827 0.290947,-0.3636827 0.159933,0 0.290946,-0.0907 0.290946,-0.2011217 0,-0.1104171 0.163439,-0.2322316 0.363684,-0.27079 0.28262,-0.053898 0.363683,-0.00881 0.363683,0.2011205 0,0.173954 0.104283,0.2707912 0.290946,0.2707912 0.204626,0 0.290508,-0.096834 0.290508,-0.3273157 -3.06e-4,-0.3185511 0.03505,-0.3259996 1.308777,-0.2804299 l 1.309083,0.046884 V 8.3897393 c 0,-0.346156 0.04863,-0.3737608 0.654367,-0.3737608 0.557443,0 0.654366,-0.043817 0.654366,-0.2909465 0,-0.2519486 0.09683,-0.2909464 0.727103,-0.2909464 0.622774,0 0.727059,-0.039434 0.727059,-0.2821831 0,-0.4022422 0.238366,-0.5002615 1.117602,-0.4595552 0.764742,0.035051 0.772805,0.030668 0.772805,-0.3877824 0,-0.3106634 0.09683,-0.4676171 0.363683,-0.5891227 0.321179,-0.1463492 0.363682,-0.1318894 0.363682,0.1222506 0,0.2572068 0.100336,0.2878795 0.945226,0.2878795 0.905614,0 0.945225,-0.013148 0.945225,-0.3557959 0,-0.3211809 -0.06705,-0.3597393 -0.690735,-0.400052 l -0.690734,-0.044252 0.612214,-0.3273145 c 0.518182,-0.2769249 0.836515,-0.3273146 2.072203,-0.3273146 1.363023,0 1.459947,-0.021914 1.459947,-0.2909464 0,-0.2865647 0.09683,-0.2909464 6.252937,-0.2909464 h 6.252892 V 3.7252678 3.361584 h 4.653346 c 4.039378,0 4.653346,-0.030668 4.653346,-0.218209 0,-0.1200592 -0.114364,-0.2300413 -0.254579,-0.2440629 -0.84909,-0.086763 3.152298,-0.1835939 5.743956,-0.1397761 2.91367,0.049515 3.090122,0.068351 3.090122,0.3273146 0,0.2431852 0.116992,0.2747334 1.017917,0.2747334 0.920951,0 1.017919,-0.026286 1.017919,-0.2909464 0,-0.2475669 0.09683,-0.2909464 0.654367,-0.2909464 0.475635,0 0.654366,-0.057835 0.654366,-0.211637 0,-0.2791151 0.453508,-0.3387064 3.344612,-0.4390487 1.3196,-0.045567 2.765305,-0.1213729 3.212679,-0.1686958 l 0.813335,-0.085447 -0.0666,0.4524569 -0.0666,0.4524569 h 0.9617 c 0.928882,0 0.961701,-0.013148 0.961701,-0.3636827 V 2.0524111 h 1.672328 c 0.919768,0 1.672284,-0.060032 1.672284,-0.1332054 0,-0.07318 -0.08193,-0.160809 -0.18184,-0.1941103 -0.0999,-0.035051 0.767063,-0.1029675 1.926774,-0.154236 3.268196,-0.1450355 7.263581,-0.377266 8.106981,-0.4716485 0.63342,-0.070548 0.76342,-0.046449 0.76342,0.1432823 0,0.1467875 0.1297,0.2287254 0.36369,0.2287254 0.22609,0 0.36368,-0.082381 0.36368,-0.21821 0,-0.1200581 0.12181,-0.218209 0.27035,-0.218209 0.14898,0 0.57418,-0.039434 0.94523,-0.092451 0.62089,-0.085001 0.6747,-0.067916 0.6747,0.2182101 0,0.2874402 0.0754,0.3106634 1.01791,0.3106634 0.98882,0 1.01787,-0.00881 1.01787,-0.3636827 0,-0.2668468 0.0775,-0.3636829 0.29095,-0.3636829 0.2134,0 0.29095,0.096834 0.29095,0.3636829 0,0.3338876 0.0534,0.3636827 0.65436,0.3636827 0.60109,0 0.65442,-0.030668 0.65442,-0.3636827 V 0.74385645 h 2.03578 c 1.63746,0 2.03584,-0.039434 2.03584,-0.2015599 0,-0.2830585 1.28587,-0.4307225 3.45368,-0.3969841 1.06708,0.017531 1.78134,-0.030668 1.78134,-0.1130478 0,-0.077117 0.37639,-0.1805271 0.83616,-0.2296017 0.45987,-0.04908 1.04881,-0.12225 1.30874,-0.162124 0.40312,-0.06266 0.47261,-0.03067 0.47261,0.2239053 0,0.278678 0.0868,0.2975195 1.38147,0.2975195 1.37661,0 1.38142,-0.00134 1.38142,-0.3636828 v -0.363683 h 3.27188 3.27188 v 0.363683 c 0,0.3610531 0.009,0.3636828 1.30874,0.3636828 h 1.30876 v 0.6543659 c 0,0.60108445 0.0307,0.65441055 0.36369,0.65441055 0.26684,0 0.36369,0.077552 0.36369,0.2909464 0,0.1936721 0.0968,0.2909464 0.29093,0.2909464 0.2134,0 0.29095,0.096834 0.29095,0.3636827 0,0.3505377 -0.035,0.3636827 -0.94522,0.3636827 -0.84822,0 -0.94518,0.030668 -0.94518,0.2909464 0,0.1936721 0.0968,0.2909464 0.29094,0.2909464 0.2134,0 0.29095,0.096834 0.29095,0.3636838 0,0.2909464 0.0727,0.3636827 0.36368,0.3636827 0.26685,0 0.36368,0.077552 0.36368,0.2909464 0,0.1936721 0.0968,0.2909464 0.29095,0.2909464 0.2134,0 0.29095,0.096834 0.29095,0.3636827 0,0.2909464 0.0727,0.3636827 0.36368,0.3636827 0.36106,0 0.36368,0.00881 0.36368,1.308733 0,1.2990496 -0.002,1.3087765 -0.36368,1.3087765 -0.2664,0 -0.36368,-0.077552 -0.36368,-0.2909465 0,-0.2480052 -0.0968,-0.2909464 -0.65436,-0.2909464 -0.60105,0 -0.65437,-0.030668 -0.65437,-0.3636827 0,-0.3338876 -0.0534,-0.3636827 -0.65437,-0.3636827 -0.60108,0 -0.65441,0.030668 -0.65441,0.3636827 0,0.2664084 -0.0775,0.3636827 -0.29094,0.3636827 -0.19368,0 -0.29095,0.096834 -0.29095,0.2909464 0,0.2133902 -0.0968,0.2909465 -0.36368,0.2909465 -0.33389,0 -0.36369,-0.053452 -0.36369,-0.6544095 0,-0.5573994 -0.0438,-0.654367 -0.29094,-0.654367 -0.19368,0 -0.29095,-0.096834 -0.29095,-0.2909464 0,-0.2133902 -0.0968,-0.2909464 -0.36369,-0.2909464 -0.2664,0 -0.36368,0.077552 -0.36368,0.2909464 0,0.2629033 -0.0968,0.2909464 -1.01791,0.2909464 -0.921,0 -1.01792,-0.026286 -1.01792,-0.2909464 0,-0.2611502 -0.0973,-0.2909464 -0.94519,-0.2909464 h -0.94522 v 0.9451818 c 0,0.9112661 -0.0131,0.9452254 -0.36368,0.9452254 -0.26641,0 -0.36368,-0.077563 -0.36368,-0.2909465 0,-0.1936732 -0.0968,-0.2909464 -0.29095,-0.2909464 -0.19367,0 -0.29094,0.096834 -0.29094,0.2909464 0,0.273857 -0.0968,0.2909465 -1.67229,0.2909465 h -1.67229 v 0.6543659 c 0,0.601041 -0.0307,0.6543659 -0.36368,0.6543659 -0.2664,0 -0.36368,-0.077552 -0.36368,-0.2909464 0,-0.1936721 -0.0968,-0.2909463 -0.29095,-0.2909463 -0.21338,0 -0.29095,-0.096834 -0.29095,-0.3636827 0,-0.2664084 0.0776,-0.3636827 0.29095,-0.3636827 0.19368,0 0.29095,-0.09728 0.29095,-0.2909466 0,-0.2480051 -0.0968,-0.2909463 -0.65436,-0.2909463 -0.55745,0 -0.65442,0.043817 -0.65442,0.2909463 0,0.2738582 -0.0968,0.2909466 -1.67228,0.2909466 h -1.67228 v 0.6543659 0.6543669 h 0.7271 c 0.6786,0 0.72705,0.026286 0.72705,0.3636828 v 0.3636824 h -2.32664 -2.3267 V 9.687652 c 0,-0.3338877 0.0534,-0.3636828 0.65441,-0.3636828 0.5574,0 0.65437,-0.043817 0.65437,-0.2909463 0,-0.2480052 -0.0968,-0.2909464 -0.65437,-0.2909464 -0.60108,0 -0.65441,-0.030668 -0.65441,-0.3636827 0,-0.3505377 0.035,-0.3636827 0.94522,-0.3636827 0.84826,0 0.94523,-0.030668 0.94523,-0.2909465 0,-0.2480063 0.0973,-0.2909464 0.65436,-0.2909464 0.60105,0 0.65438,-0.030668 0.65438,-0.3636838 V 6.7054517 h -1.96314 -1.96316 v 1.0179181 1.0179183 h -0.65454 c -0.60104,0 -0.65436,-0.030668 -0.65436,-0.3636828 0,-0.2909463 -0.0727,-0.3636838 -0.36368,-0.3636838 -0.29095,0 -0.36369,0.072734 -0.36369,0.3636838 0,0.2664084 -0.0775,0.3636828 -0.29094,0.3636828 -0.21339,0 -0.29094,-0.096834 -0.29094,-0.3636828 0,-0.3531673 -0.0307,-0.3636838 -1.01793,-0.3636838 h -1.01792 v 1.0179181 c 0,0.9888234 0.009,1.0178744 0.36369,1.0178744 0.26641,0 0.36368,0.07755 0.36368,0.290947 0,0.248005 -0.0968,0.290946 -0.65436,0.290946 h -0.65438 V 9.3228741 c 0,-1.2990495 -0.002,-1.3087329 -0.36368,-1.3087329 -0.35316,0 -0.36368,0.030668 -0.36368,1.0179181 v 1.0178737 h -0.65436 -0.65437 V 9.0320593 c 0,-0.9209951 -0.0263,-1.0179181 -0.29095,-1.0179181 -0.26334,0 -0.29094,0.096834 -0.29094,1.0179181 0,0.9888227 -0.009,1.0178737 -0.36368,1.0178737 -0.29095,0 -0.36369,-0.072734 -0.36369,-0.3636829 V 9.3225674 h -2.61733 c -2.520545,0 -2.617515,-0.00881 -2.617515,-0.2909464 0,-0.2633415 -0.0973,-0.2909463 -1.017917,-0.2909463 -0.920951,0 -1.017918,0.026285 -1.017918,0.2909463 0,0.2738569 -0.09683,0.2909464 -1.672284,0.2909464 h -1.672285 v 0.3636827 0.3636829 h -6.907303 c -6.810335,0 -6.90726,0.0043 -6.90726,0.290946 0,0.28525 -0.09683,0.290947 -5.016896,0.290947 h -5.016856 v 0.363682 0.363683 h -2.617509 -2.617509 v -0.363685 c 0,-0.361054 -0.0088,-0.363683 -1.308733,-0.363683 -1.299093,0 -1.308777,0.0026 -1.308777,0.363683 v 0.363683 h -6.616444 -6.616488 v 0.363684 c 0,0.290946 -0.07273,0.363682 -0.363684,0.363682 -0.266408,0 -0.363683,0.07755 -0.363683,0.290947 0,0.193672 -0.09683,0.290946 -0.290946,0.290946 -0.213389,0 -0.290947,0.09683 -0.290947,0.363683 0,0.333887 -0.05345,0.363683 -0.654365,0.363683 -0.557443,0 -0.654368,0.04382 -0.654368,0.290946 0,0.273858 -0.09683,0.290946 -1.672284,0.290946 h -1.672284 v 0.363683 c 0,0.333888 -0.05345,0.363684 -0.65441,0.363684 -0.557398,0 -0.654366,0.04382 -0.654366,0.290946 0,0.276487 0.09683,0.290947 1.963142,0.290947 h 1.9631 v 0.363682 c 0,0.290947 0.07273,0.363683 0.363683,0.363683 0.266408,0 0.363683,0.07755 0.363683,0.290946 0,0.270352 -0.09683,0.290947 -1.381426,0.290947 -1.376649,0 -1.381469,0.0012 -1.381469,0.363683 v 0.363682 h 2.326651 c 2.229727,0 2.326694,0.01315 2.326694,0.290947 0,0.273858 0.09683,0.290946 1.672284,0.290946 1.575317,0 1.672284,-0.01753 1.672284,-0.290946 0,-0.282183 0.09683,-0.290947 3.271877,-0.290947 h 3.271875 v -0.363682 -0.363683 h 7.343548 c 7.24658,0 7.343548,-0.0043 7.343548,-0.290947 0,-0.285688 0.09683,-0.290946 5.235019,-0.290946 h 5.234975 v -0.363683 -0.363682 h 5.307711 c 5.210744,0 5.307712,-0.0043 5.307712,-0.290947 0,-0.285251 0.09683,-0.290946 4.944165,-0.290946 h 4.944155 v -0.363684 c 0,-0.290946 0.0727,-0.363683 0.36369,-0.363683 0.26641,0 0.36368,-0.07755 0.36368,-0.290946 0,-0.21339 0.0968,-0.290946 0.36368,-0.290946 0.26641,0 0.36369,0.07755 0.36369,0.290946 0,0.193672 0.0973,0.290946 0.29094,0.290946 0.21339,0 0.29095,0.09683 0.29095,0.363683 0,0.360616 0.009,0.363684 1.30873,0.363684 h 1.30878 v 1.308776 1.308733 h -0.94523 c -0.91126,0 -0.94522,-0.01315 -0.94522,-0.363684 v -0.363682 h -2.98102 c -2.88409,0 -2.98106,-0.0088 -2.98106,-0.290947 0,-0.248005 -0.0968,-0.290946 -0.65437,-0.290946 -0.557445,0 -0.654365,0.04382 -0.654365,0.290946 0,0.280431 -0.0968,0.290947 -2.690204,0.290947 h -2.690203 v 1.017874 1.017917 h 3.998936 3.998986 v 0.654411 c 0,0.557399 0.0438,0.654367 0.29094,0.654367 0.21339,0 0.29095,0.09683 0.29095,0.363683 0,0.290946 0.0727,0.363682 0.36368,0.363682 0.26641,0 0.36369,0.07755 0.36369,0.290947 0,0.269476 0.0968,0.290946 1.30873,0.290946 h 1.30878 V 20.594677 19.94031 h 1.01791 c 0.98883,0 1.01792,0.0088 1.01792,0.363683 0,0.290946 -0.0727,0.363683 -0.36368,0.363683 -0.26641,0 -0.36369,0.07755 -0.36369,0.290946 0,0.21339 0.0968,0.290946 0.36369,0.290946 h 0.36368 v 2.326695 c 0,2.229727 0.0132,2.326651 0.29095,2.326651 0.21339,0 0.29094,0.09683 0.29094,0.363683 0,0.333887 0.0534,0.363684 0.65437,0.363684 h 0.65436 v -0.654367 c 0,-0.601085 0.0307,-0.654411 0.36368,-0.654411 0.35055,0 0.3637,0.03505 0.3637,0.945225 v 0.945226 h -3.99899 -3.99893 v 0.363682 c 0,0.362369 0.004,0.363683 1.38142,0.363683 1.28455,0 1.38147,0.02191 1.38147,0.290947 0,0.276924 -0.0968,0.290946 -2.03583,0.290946 h -2.03584 v 0.363684 c 0,0.266408 -0.0776,0.363682 -0.29094,0.363682 -0.24801,0 -0.29095,0.09683 -0.29095,0.654411 0,0.60104 -0.0307,0.654366 -0.36368,0.654366 h -0.36369 v 1.672288 1.672284 h 0.36369 c 0.2664,0 0.36368,0.07755 0.36368,0.290947 0,0.285251 0.0968,0.290946 5.23502,0.290946 5.13805,0 5.23497,-0.0043 5.23497,-0.290946 0,-0.270352 0.0968,-0.290947 1.38147,-0.290947 1.2845,0 1.38147,0.02191 1.38147,0.290947 0,0.261151 0.0972,0.290946 0.94523,0.290946 h 0.94517 v -0.65437 -0.654366 h 2.32666 2.3267 v 0.363683 c 0,0.290946 0.0727,0.363682 0.36368,0.363682 0.29095,0 0.36368,-0.07273 0.36368,-0.363682 0,-0.350538 0.035,-0.363683 0.94518,-0.363683 h 0.94523 v 0.654366 c 0,0.601041 0.0307,0.654366 0.36368,0.654366 0.33388,0 0.36368,-0.05345 0.36368,-0.654366 v -0.654366 h 0.65437 c 0.5574,0 0.65436,-0.04382 0.65436,-0.290946 0,-0.213391 0.0968,-0.290947 0.36368,-0.290947 0.3339,0 0.36369,0.05345 0.36369,0.654366 0,0.601041 -0.0307,0.654366 -0.36369,0.654366 -0.2664,0 -0.36368,0.07755 -0.36368,0.290946 0,0.248007 0.0968,0.290947 0.65438,0.290947 h 0.6544 v 1.672328 1.672285 h -0.6544 -0.65438 v 0.654322 c 0,0.557486 -0.0438,0.65441 -0.29094,0.65441 -0.21339,0 -0.29095,0.09683 -0.29095,0.363683 0,0.26641 0.0776,0.363684 0.29095,0.363684 0.19367,0 0.29094,0.09727 0.29094,0.290945 0,0.21339 0.0968,0.290947 0.36368,0.290947 0.36062,0 0.36369,0.0088 0.36369,1.308777 0,1.211809 0.0219,1.308733 0.29094,1.308733 0.19368,0 0.29095,-0.09683 0.29095,-0.290946 0,-0.21339 0.0973,-0.290947 0.36368,-0.290947 0.26642,0 0.36368,0.07755 0.36368,0.290947 0,0.193672 0.0968,0.290946 0.29095,0.290946 0.26335,0 0.29095,0.09727 0.29095,1.017922 v 1.017918 h -0.65436 c -0.60105,0 -0.65437,0.03067 -0.65437,0.363682 0,0.333888 0.0534,0.363684 0.65437,0.363684 0.55744,0 0.65436,0.04382 0.65436,0.290947 0,0.213389 0.0968,0.290946 0.36368,0.290946 0.35317,0 0.36368,0.03067 0.36368,1.017917 0,0.920995 0.0263,1.017918 0.29095,1.017918 0.26115,0 0.29095,0.09683 0.29095,0.945226 0,0.911267 0.0132,0.945181 0.36368,0.945181 0.35316,0 0.36368,0.03067 0.36368,1.017962 0,0.920951 0.0263,1.017917 0.29095,1.017917 0.26334,0 0.29095,0.09683 0.29095,1.017918 0,0.988824 0.009,1.017918 0.36368,1.017918 0.26641,0 0.36368,0.07755 0.36368,0.290947 0,0.163438 0.0968,0.290946 0.22171,0.290946 0.35931,0 0.53603,0.713827 0.51259,2.072205 -0.0219,1.193055 -0.002,1.272408 0.27648,1.272408 0.27868,0 0.29795,0.08632 0.29795,1.308733 0,1.299048 0.002,1.308776 0.36368,1.308776 0.35318,0 0.3637,0.03067 0.3637,1.017874 0,0.920994 0.0263,1.017918 0.29095,1.017918 0.26333,0 0.29093,0.09683 0.29093,1.017962 0,0.988823 0.009,1.017918 0.36369,1.017918 0.36105,0 0.36369,0.0088 0.36369,1.308733 0,1.211808 0.0219,1.308776 0.29094,1.308776 0.19367,0 0.29094,0.09683 0.29094,0.290946 0,0.213391 0.0968,0.290947 0.36369,0.290947 h 0.36368 v 1.672284 c 0,1.575361 0.0175,1.672329 0.29095,1.672329 0.21339,0 0.29094,0.09683 0.29094,0.363682 0,0.339145 0.0486,0.363683 0.7271,0.363683 0.63014,0 0.72707,0.03943 0.72707,0.290946 0,0.21339 -0.0968,0.290947 -0.36368,0.290947 -0.29095,0 -0.36369,0.07273 -0.36369,0.363682 0,0.290947 -0.0727,0.363684 -0.36368,0.363684 -0.33389,0 -0.36369,0.05345 -0.36369,0.65441 0,0.601041 0.0307,0.654367 0.36369,0.654367 0.2664,0 0.36368,0.07755 0.36368,0.290946 0,0.213389 0.0972,0.290946 0.36369,0.290946 h 0.36368 v 1.660191 c 0,0.913063 0.0613,1.681968 0.13626,1.708652 0.075,0.02629 -0.0723,0.783759 -0.32731,1.682538 -0.44571,1.572206 -0.47844,1.634207 -0.8632,1.63596 -0.37683,0.002 -0.40004,0.03943 -0.40004,0.656206 v 0.654367 h -0.65438 c -0.60107,0 -0.65436,0.03067 -0.65436,0.363683 0,0.266408 -0.0776,0.363683 -0.29095,0.363683 -0.19366,0 -0.29094,0.09683 -0.29094,0.290946 0,0.21339 -0.0968,0.290946 -0.36369,0.290946 -0.29094,0 -0.36368,0.07274 -0.36368,0.363683 0,0.266848 -0.0775,0.363684 -0.29094,0.363684 -0.24802,0 -0.29095,0.09683 -0.29095,0.654366 v 0.65441 h -1.01797 c -0.92095,0 -1.01792,0.02629 -1.01792,0.290947 0,0.21339 -0.0968,0.290946 -0.36368,0.290946 -0.29095,0 -0.36368,0.07273 -0.36368,0.363683 0,0.360616 -0.009,0.363683 -1.30873,0.363683 -1.2118,0 -1.30874,0.02191 -1.30874,0.290946 0,0.261151 -0.0968,0.290946 -0.94522,0.290946 -0.83046,0 -0.94523,0.03505 -0.94523,0.275173 0,0.376828 -0.27035,0.451799 -1.62842,0.451799 -1.09683,0 -1.16373,0.01753 -1.09236,0.290947 0.0622,0.237927 0.004,0.290946 -0.31768,0.290946 -0.21645,0 -0.4557,0.04908 -0.53168,0.109101 -0.0763,0.06003 -0.51441,0.08938 -0.97427,0.06528 z m -6.79821,-6.718276 c 0,-0.678597 0.0263,-0.72706 0.36369,-0.72706 0.35054,0 0.36369,-0.03505 0.36369,-0.945225 0,-0.911266 -0.0132,-0.945181 -0.36369,-0.945181 -0.33389,0 -0.36369,0.05302 -0.36369,0.654366 v 0.654367 h -0.65436 c -0.55745,0 -0.65441,0.04382 -0.65441,0.290947 0,0.21339 0.0968,0.290946 0.36369,0.290946 0.33913,0 0.36368,0.04863 0.36368,0.727059 0,0.630179 0.0395,0.727103 0.29095,0.727103 0.25195,0 0.29095,-0.09727 0.29095,-0.727103 z m 19.19498,0 v -0.72706 h 0.6544 c 0.5574,0 0.65437,-0.04382 0.65437,-0.290946 0,-0.247567 -0.0968,-0.290946 -0.65437,-0.290946 -0.55743,0 -0.6544,0.04382 -0.6544,0.290946 0,0.193672 -0.0968,0.290946 -0.29095,0.290946 -0.21339,0 -0.29095,0.09727 -0.29095,0.363683 0,0.290946 -0.0727,0.363684 -0.36368,0.363684 -0.29095,0 -0.36368,0.07273 -0.36368,0.363683 0,0.333887 0.0534,0.363682 0.65436,0.363682 h 0.65436 z m -21.08543,-1.9631 c 0,-0.601041 -0.0307,-0.654366 -0.36368,-0.654366 -0.33388,0 -0.36368,0.05302 -0.36368,0.654366 0,0.601041 0.0307,0.654367 0.36368,0.654367 0.3339,0 0.36368,-0.05346 0.36368,-0.654367 z m 24.43004,-1.017917 c 0,-0.290946 -0.0727,-0.363684 -0.36368,-0.363684 -0.29095,0 -0.36369,0.07273 -0.36369,0.363684 0,0.290947 0.0727,0.363683 0.36369,0.363683 0.29094,0 0.36368,-0.07273 0.36368,-0.363683 z m -21.81252,-1.963143 c 0,-0.21339 -0.0968,-0.290947 -0.36369,-0.290947 -0.26641,0 -0.36368,0.07755 -0.36368,0.290947 0,0.21339 0.0972,0.290946 0.36368,0.290946 0.26642,0 0.36369,-0.07755 0.36369,-0.290946 z m 0,-2.035837 c 0,-0.213389 -0.0968,-0.290946 -0.36369,-0.290946 -0.26641,0 -0.36368,0.07755 -0.36368,0.290946 0,0.213391 0.0972,0.290947 0.36368,0.290947 0.26642,0 0.36369,-0.07755 0.36369,-0.290947 z m 15.8504,-2.32665 v -2.617509 h -1.01788 -1.01792 v 2.617509 2.61751 h 1.01792 1.01788 z m 5.96212,1.672285 c 0,-0.290947 -0.0727,-0.363683 -0.36368,-0.363683 -0.29095,0 -0.36369,0.07273 -0.36369,0.363683 0,0.290946 0.0727,0.363682 0.36369,0.363682 0.29094,0 0.36368,-0.07273 0.36368,-0.363682 z M 114.57729,71.93519 c 0,-0.266408 -0.0776,-0.363683 -0.29094,-0.363683 -0.19367,0 -0.29094,-0.09683 -0.29094,-0.290946 0,-0.21339 -0.0968,-0.290946 -0.36369,-0.290946 -0.2664,0 -0.36368,0.07755 -0.36368,0.290946 0,0.213389 0.0968,0.290946 0.36368,0.290946 0.29095,0 0.36369,0.07274 0.36369,0.363683 0,0.266409 0.0775,0.363683 0.29094,0.363683 0.21339,0 0.29094,-0.09728 0.29094,-0.363683 z m -1.30877,-2.690202 c 0,-0.193672 -0.0968,-0.290946 -0.29094,-0.290946 -0.19368,0 -0.29095,0.09683 -0.29095,0.290946 0,0.193672 0.0968,0.290946 0.29095,0.290946 0.19367,0 0.29094,-0.09683 0.29094,-0.290946 z m 20.50375,-3.271876 c 0,-0.266409 -0.0776,-0.363683 -0.29095,-0.363683 -0.21339,0 -0.29095,0.09683 -0.29095,0.363683 0,0.266409 0.0775,0.363683 0.29095,0.363683 0.21339,0 0.29095,-0.09728 0.29095,-0.363683 z m -0.58164,-2.326695 c 0,-0.601041 -0.0307,-0.654366 -0.36368,-0.654366 -0.29095,0 -0.36368,-0.07273 -0.36368,-0.363683 0,-0.266409 -0.0775,-0.363682 -0.29095,-0.363682 -0.21339,0 -0.29095,0.09683 -0.29095,0.363682 0,0.266409 0.0775,0.363683 0.29095,0.363683 0.24801,0 0.29095,0.09683 0.29095,0.654366 0,0.601086 0.0307,0.654367 0.36368,0.654367 0.33389,0 0.36368,-0.05345 0.36368,-0.654367 z m -7.27085,-9.961056 v -4.653302 h -0.36369 c -0.2664,0 -0.36368,-0.07755 -0.36368,-0.290947 0,-0.193672 -0.0968,-0.290946 -0.29095,-0.290946 -0.21338,0 -0.29094,-0.09728 -0.29094,-0.363683 0,-0.290946 -0.0727,-0.363682 -0.36368,-0.363682 -0.35054,0 -0.36369,-0.03505 -0.36369,-0.945226 0,-0.911267 -0.0132,-0.945225 -0.36368,-0.945225 -0.29095,0 -0.36368,-0.07273 -0.36368,-0.363683 v -0.363683 h -2.25395 -2.25397 v 0.654366 c 0,0.557443 0.0438,0.654367 0.29095,0.654367 0.2134,0 0.29095,0.09727 0.29095,0.363683 0,0.290947 0.0727,0.363683 0.36368,0.363683 0.26685,0 0.36368,0.07755 0.36368,0.290946 0,0.193672 0.0968,0.290947 0.29095,0.290947 0.27386,0 0.29095,0.09683 0.29095,1.672284 v 1.672285 h 0.36368 c 0.33388,0 0.36368,0.05302 0.36368,0.654366 0,0.557443 0.0438,0.654366 0.29095,0.654366 0.26334,0 0.29094,0.09728 0.29094,1.017918 0,0.988823 0.009,1.017918 0.36368,1.017918 0.3339,0 0.36369,0.05345 0.36369,0.65441 v 0.654366 h 1.01792 1.01792 v 0.654367 c 0,0.557442 0.0438,0.654366 0.29094,0.654366 0.24801,0 0.29095,0.09683 0.29095,0.654367 0,0.601085 0.0307,0.654366 0.36368,0.654366 h 0.36369 z m 1.89045,1.672327 c 0,-0.266846 -0.0775,-0.363682 -0.29095,-0.363682 -0.19367,0 -0.29094,-0.09683 -0.29094,-0.290947 0,-0.21339 -0.0968,-0.290946 -0.36369,-0.290946 -0.33388,0 -0.36368,0.05345 -0.36368,0.65441 v 0.654366 h 0.65437 c 0.60104,0 0.65436,-0.03067 0.65436,-0.363682 z m -0.58168,-5.671262 c 0,-0.601041 -0.0307,-0.654367 -0.36368,-0.654367 -0.33388,0 -0.36368,0.05345 -0.36368,0.654367 0,0.601041 0.0307,0.654366 0.36368,0.654366 0.33389,0 0.36368,-0.05345 0.36368,-0.654366 z m -22.53962,-1.308733 c 0,-0.601041 -0.0307,-0.654367 -0.36368,-0.654367 -0.33389,0 -0.36368,0.05302 -0.36368,0.654367 0,0.601041 0.0307,0.654366 0.36368,0.654366 0.33389,0 0.36368,-0.05345 0.36368,-0.654366 z m -0.72706,-8.870451 c 0,-0.290946 0.0727,-0.363683 0.36369,-0.363683 0.26641,0 0.36368,-0.07755 0.36368,-0.290946 0,-0.21339 -0.0968,-0.290946 -0.36368,-0.290946 -0.29095,0 -0.36369,-0.07273 -0.36369,-0.363684 0,-0.350538 -0.035,-0.363683 -0.94522,-0.363683 h -0.94518 v 0.654367 c 0,0.557442 0.0438,0.654366 0.29095,0.654366 0.21339,0 0.29094,0.09683 0.29094,0.363683 0,0.333887 0.0534,0.363682 0.65437,0.363682 0.60108,0 0.65436,-0.03067 0.65436,-0.363682 z m -3.92628,-1.308733 c 0,-0.353167 -0.0307,-0.363683 -1.017875,-0.363683 -0.988828,0 -1.017923,-0.0088 -1.017923,-0.363683 0,-0.266409 -0.07755,-0.363683 -0.290946,-0.363683 -0.21339,0 -0.290947,0.09683 -0.290947,0.363683 0,0.290946 -0.07273,0.363683 -0.363682,0.363683 -0.290947,0 -0.363684,-0.07273 -0.363684,-0.363683 0,-0.350538 -0.03505,-0.363683 -0.945224,-0.363683 -0.911267,0 -0.945226,0.01315 -0.945226,0.363683 0,0.333887 0.05345,0.363683 0.654411,0.363683 0.60104,0 0.654366,0.03067 0.654366,0.363683 v 0.363683 h 1.963099 1.963151 z M 84.76686,36.162673 v -0.945225 h -0.945182 c -0.848301,0 -0.945225,0.03067 -0.945225,0.290946 0,0.193672 0.09683,0.290946 0.290946,0.290946 0.247568,0 0.290946,0.09683 0.290946,0.654367 v 0.654411 h 0.654367 0.65441 z m 30.5375,0.290946 v -0.654366 h -2.69021 -2.6902 v 0.654366 0.654411 h 2.6902 2.69021 z m 5.23501,-2.253958 c 0,-0.273857 -0.0968,-0.290945 -1.67228,-0.290945 -1.57536,0 -1.67233,0.01753 -1.67233,0.290945 0,0.273858 0.0968,0.290946 1.67233,0.290946 1.57531,0 1.67228,-0.01753 1.67228,-0.290946 z m 1.30873,0 c 0,-0.193672 -0.0968,-0.290945 -0.29094,-0.290945 -0.19367,0 -0.29094,0.09683 -0.29094,0.290945 0,0.193673 0.0968,0.290946 0.29094,0.290946 0.19368,0 0.29094,-0.09683 0.29094,-0.290946 z M 95.382283,31.509463 c 0,-0.290946 0.07273,-0.363682 0.363683,-0.363682 0.290946,0 0.363682,0.07273 0.363682,0.363682 0,0.350538 0.03505,0.363684 0.945226,0.363684 h 0.945225 v -1.308733 -1.308776 h -0.654454 c -0.5574,0 -0.654367,0.04382 -0.654367,0.290946 0,0.193672 -0.09683,0.290945 -0.290947,0.290945 -0.213389,0 -0.290946,0.09683 -0.290946,0.363684 0,0.290947 -0.07273,0.363683 -0.363683,0.363683 -0.290946,0 -0.363682,-0.07273 -0.363682,-0.363683 0,-0.333887 -0.05345,-0.363684 -0.654366,-0.363684 h -0.654367 v 1.017919 1.017918 h 0.654367 c 0.601041,0 0.654366,-0.03067 0.654366,-0.363683 z m 4.653307,-1.599595 c 0,-0.557439 -0.04381,-0.654362 -0.290955,-0.654362 -0.24756,0 -0.29094,0.09683 -0.29094,0.654362 0,0.557447 0.0438,0.654415 0.29094,0.654415 0.24801,0 0.290955,-0.09683 0.290955,-0.654415 z m -3.926248,-5.307712 v -0.727059 h -0.654366 -0.654367 v 0.727059 0.727103 h 0.654367 0.654366 z m 10.615428,0.363683 c 0,-0.290947 -0.0727,-0.363683 -0.36368,-0.363683 -0.29095,0 -0.36369,-0.07273 -0.36369,-0.363683 0,-0.266408 -0.0776,-0.363682 -0.29094,-0.363682 -0.21339,0 -0.29095,0.09683 -0.29095,0.363682 0,0.290947 -0.0727,0.363683 -0.36368,0.363683 -0.29095,0 -0.36368,0.07273 -0.36368,0.363683 0,0.353167 0.0307,0.363684 1.01791,0.363684 0.98883,0 1.01792,-0.0088 1.01792,-0.363684 z M 83.458127,19.294576 v -0.654367 h -2.61751 -2.617509 v 0.654367 0.654366 h 2.617509 2.61751 z M 34.598111,18.276658 c 0,-0.290947 -0.07274,-0.363683 -0.363683,-0.363683 -0.290947,0 -0.363683,0.07273 -0.363683,0.363683 0,0.290946 0.07273,0.363683 0.363683,0.363683 0.290946,0 0.363683,-0.07273 0.363683,-0.363683 z m -0.727104,-5.234975 c 0,-0.266409 -0.07755,-0.363683 -0.290946,-0.363683 -0.213389,0 -0.290947,0.09728 -0.290947,0.363683 0,0.266409 0.07756,0.363683 0.290947,0.363683 0.21339,0 0.290946,-0.09683 0.290946,-0.363683 z m 0,-1.308777 c 0,-0.266408 -0.07755,-0.363683 -0.290946,-0.363683 -0.213389,0 -0.290947,0.09683 -0.290947,0.363683 0,0.266409 0.07756,0.363683 0.290947,0.363683 0.21339,0 0.290946,-0.09683 0.290946,-0.363683 z m 7.270855,-2.035835 c 0,-0.2664095 -0.07755,-0.3636838 -0.290946,-0.3636838 -0.21339,0 -0.290947,0.096834 -0.290947,0.3636838 0,0.2668467 0.07755,0.363683 0.290947,0.363683 0.21339,0 0.290946,-0.096834 0.290946,-0.363683 z m 0,-1.9631 c 0,-0.1936721 -0.09683,-0.2909464 -0.290946,-0.2909464 -0.194111,0 -0.290947,0.096834 -0.290947,0.2909464 0,0.1936722 0.09683,0.2909465 0.290947,0.2909465 0.19411,0 0.290946,-0.096834 0.290946,-0.2909465 z m 5.380405,0 c 0,-0.2703518 -0.09683,-0.2909464 -1.38147,-0.2909464 -1.284501,0 -1.381425,0.021914 -1.381425,0.2909464 0,0.270353 0.09683,0.2909465 1.381425,0.2909465 1.284547,0 1.38147,-0.021914 1.38147,-0.2909465 z m 21.085417,0 c 0,-0.1936721 -0.09683,-0.2909464 -0.290947,-0.2909464 -0.19411,0 -0.290946,0.096834 -0.290946,0.2909464 0,0.1936722 0.09683,0.2909465 0.290946,0.2909465 0.194111,0 0.290947,-0.096834 0.290947,-0.2909465 z M 62.372709,7.0796051 V 6.7159224 h -1.672328 -1.672284 v 0.3636827 0.3636827 h 1.672284 1.672328 z M 125.91978,6.7886587 v -0.654367 h -1.38147 c -1.2845,0 -1.38143,0.021914 -1.38143,0.2909464 0,0.193672 -0.0968,0.2909464 -0.29094,0.2909464 -0.19367,0 -0.29095,-0.096834 -0.29095,-0.2909464 0,-0.2133891 -0.0968,-0.2909464 -0.36368,-0.2909464 -0.2664,0 -0.36368,0.077552 -0.36368,0.2909464 0,0.2133901 0.0968,0.2909464 0.36368,0.2909464 0.29094,0 0.36368,0.072734 0.36368,0.3636838 V 7.443551 h 1.67229 1.67228 z M 53.793122,5.0436818 V 4.679998 h -2.326695 -2.326651 v 0.3636838 0.3636827 h 2.326651 2.326695 z M 116.61314,1.7717619 c 0,-0.2480052 -0.0973,-0.2909464 -0.65442,-0.2909464 -0.5574,0 -0.65436,0.043817 -0.65436,0.2909464 0,0.2480052 0.0968,0.2909464 0.65436,0.2909464 0.55745,0 0.65442,-0.043817 0.65442,-0.2909464 z m 3.92623,0 c 0,-0.2133901 0.0973,-0.2909464 0.36369,-0.2909464 0.29094,0 0.36369,-0.072734 0.36369,-0.3636827 0,-0.33388765 0.0534,-0.36368385 0.65436,-0.36368385 0.55744,0 0.65437,-0.043817 0.65437,-0.2909464 0,-0.2633416 -0.0973,-0.2909464 -1.01792,-0.2909464 h -1.01792 v 0.654367 0.65436605 h -0.65436 c -0.55745,0 -0.65438,0.043817 -0.65438,0.2909463 0,0.2480063 0.0968,0.2909464 0.65438,0.2909464 0.55744,0 0.65436,-0.043817 0.65436,-0.2909464 z m 13.2329,0 c 0,-0.2480052 -0.0968,-0.2909464 -0.65437,-0.2909464 -0.55744,0 -0.65437,0.043817 -0.65437,0.2909464 0,0.2480052 0.0968,0.2909464 0.65437,0.2909464 0.55745,0 0.65437,-0.043817 0.65437,-0.2909464 z"
           id="path909"
           inkscape:connector-curvature="0" />
        <g
           id="g8186"
           transform="matrix(1.1152114,0,0,1.1152114,-4.5051973,-3.294192)">
          <rect
             transform="matrix(-0.06104644,-0.99813493,0.9981154,-0.06136487,0,0)"
             rx="0.28305286"
             y="110.19754"
             x="-30.566439"
             height="53.414383"
             width="7.0401716"
             id="rect2124-8-8"
             style="display:inline;opacity:1;fill:#ececec;fill-opacity:1;stroke:#000000;stroke-width:0.61561954;stroke-miterlimit:4;stroke-dasharray:none;stroke-dashoffset:0;stroke-opacity:1" />
          <path
             inkscape:connector-curvature="0"
             id="path915"
             d="M 33.375152,28.913357 C 29.521107,28.586853 26.3029,28.315513 26.223612,28.31013 26.144242,28.3062 26.10299,27.331286 26.131282,26.146873 l 0.05186,-2.153473 5.716534,-1.146065 c 3.144105,-0.630298 6.288878,-1.281028 6.988406,-1.446048 0.699489,-0.16502 1.315092,-0.256567 1.367938,-0.203917 0.11355,0.113549 0.296251,7.619608 0.195274,8.028858 -0.0609,0.247137 -0.905607,0.209811 -7.076496,-0.312753 z"
             style="display:inline;opacity:1;fill:#e66629;fill-opacity:1;stroke:#800080;stroke-width:0.28296694;stroke-miterlimit:4;stroke-dasharray:0.28296698, 0.28296698;stroke-dashoffset:0;stroke-opacity:0" />
          <path
             inkscape:connector-curvature="0"
             id="path911"
             d="m 114.56502,86.209963 c -5.36284,-4.958502 -4.84641,-4.21544 -4.42211,-6.362823 0.63957,-3.236713 0.50999,-4.628618 -0.75395,-8.099935 -1.14622,-3.147995 -2.07552,-5.16293 -3.20999,-6.960038 -0.34183,-0.541581 -0.92604,-1.951481 -1.29808,-3.133104 -0.63352,-2.01187 -3.97105,-10.646549 -4.56006,-11.797525 -0.14694,-0.286821 -2.574153,-1.924606 -5.394111,-3.639362 l -5.127136,-3.11778 -2.873355,-0.463 C 74.484103,40.631634 69.108651,40.077009 62.121345,40.077009 c -4.122007,0 -5.417257,-0.09351 -7.194996,-0.519774 -1.192427,-0.286035 -2.557655,-0.52056 -3.033856,-0.521582 -0.639963,-0.0011 -1.495082,-0.440525 -3.277889,-1.68352 -2.664721,-1.857851 -6.015652,-3.576654 -7.929099,-4.067039 l -1.243427,-0.318646 -0.108442,-5.507071 c -0.05972,-3.028906 -0.114728,-6.667875 -0.122586,-8.086619 l -0.01179,-2.57954 2.216731,-0.449837 c 2.52304,-0.512034 4.884439,-1.391945 8.084415,-3.012521 l 2.216692,-1.122608 7.302062,-0.411058 C 63.035278,11.570881 72.658349,11.093226 80.403765,10.73525 104.66514,9.6138989 116.4567,8.7871089 128.88173,7.3360319 c 1.84893,-0.216098 3.38669,-0.360294 3.41725,-0.32061 0.0314,0.03968 0.19096,0.776144 0.35598,1.636724 0.58189,3.0287481 0.76707,3.4515531 1.64599,3.7579021 0.44851,0.156376 1.60097,0.284463 2.561,0.284463 h 1.74552 l 0.16895,4.498567 c 0.0927,2.474241 0.24556,5.290741 0.33947,6.258899 0.16345,1.686388 0.14694,1.760332 -0.39703,1.760332 -0.31236,0 -0.97464,0.170128 -1.47206,0.377975 l -0.90439,0.377975 0.008,3.338357 c 0.008,2.504495 0.12416,3.673348 0.472,4.6795 l 0.46354,1.341142 -3.27553,0.812842 c -5.49984,1.364834 -9.40398,3.62396 -9.40398,5.441696 0,2.375626 1.6623,9.933705 3.31124,15.055655 0.74935,2.32753 5.26921,14.891653 6.70791,18.646332 0.32337,0.843685 0.2715,1.179148 -0.68487,4.433384 -1.02709,3.495009 -1.04721,3.534299 -2.77214,5.400912 l -1.73754,1.880287 -5.21578,1.203547 c -2.86868,0.661966 -5.3918,1.244173 -5.60691,1.293876 -0.21964,0.05068 -1.9925,-1.390216 -4.04225,-3.285394 z"
             style="display:inline;opacity:1;fill:#32353e;fill-opacity:1;stroke:#800080;stroke-width:0.40017575;stroke-miterlimit:4;stroke-dasharray:0.40017571, 0.40017571;stroke-dashoffset:0;stroke-opacity:0" />
        </g>
        <g
           id="g8190"
           transform="matrix(1.1152114,0,0,1.1152114,-4.5051973,-3.294192)">
          <rect
             transform="matrix(0.99999988,4.8062886e-4,-1.6159886e-4,0.99999999,0,0)"
             rx="0.28305286"
             y="32.246975"
             x="151.34918"
             height="53.414379"
             width="7.0401716"
             id="rect2124-8"
             style="display:inline;opacity:1;fill:#ececec;fill-opacity:1;stroke:#000000;stroke-width:0.61561954;stroke-miterlimit:4;stroke-dasharray:none;stroke-dashoffset:0;stroke-opacity:1" />
          <rect
             transform="matrix(0.99999988,4.8062886e-4,-1.6159886e-4,0.99999999,0,0)"
             rx="0.28305286"
             y="32.242599"
             x="160.37257"
             height="53.414379"
             width="7.0401716"
             id="rect2124-8-3"
             style="display:inline;opacity:1;fill:#ececec;fill-opacity:1;stroke:#000000;stroke-width:0.61561954;stroke-miterlimit:4;stroke-dasharray:none;stroke-dashoffset:0;stroke-opacity:1" />
        </g>
      </g>
    </g>
  </g>
</svg>
