<?xml version="1.0" encoding="UTF-8" standalone="no"?>
<!-- Created with Inkscape (http://www.inkscape.org/) -->

<svg
   width="11.743243mm"
   height="73.769196mm"
   viewBox="0 0 11.743243 73.769196"
   version="1.1"
   id="svg1"
   inkscape:version="1.3.2 (091e20e, 2023-11-25, custom)"
   sodipodi:docname="scalpel.svg"
   xmlns:inkscape="http://www.inkscape.org/namespaces/inkscape"
   xmlns:sodipodi="http://sodipodi.sourceforge.net/DTD/sodipodi-0.dtd"
   xmlns="http://www.w3.org/2000/svg"
   xmlns:svg="http://www.w3.org/2000/svg">
  <sodipodi:namedview
     id="namedview1"
     pagecolor="#ffffff"
     bordercolor="#000000"
     borderopacity="0.25"
     inkscape:showpageshadow="2"
     inkscape:pageopacity="0.0"
     inkscape:pagecheckerboard="0"
     inkscape:deskcolor="#d1d1d1"
     inkscape:document-units="mm"
     inkscape:zoom="0.74029882"
     inkscape:cx="285.02004"
     inkscape:cy="26.340715"
     inkscape:window-width="1920"
     inkscape:window-height="1009"
     inkscape:window-x="-8"
     inkscape:window-y="-8"
     inkscape:window-maximized="1"
     inkscape:current-layer="layer1" />
  <defs
     id="defs1" />
  <g
     inkscape:label="Calque 1"
     inkscape:groupmode="layer"
     id="layer1"
     transform="translate(-29.63333,-141.55208)">
    <g
       id="cutter"
       transform="translate(-195.67736,78.550698)">
      <g
         id="g10"
         transform="matrix(1.4975055,0,0,1.4975055,150.3927,-65.988271)">
        <path
           style="fill:#eeeeee;fill-opacity:1;stroke:#1a1a1a;stroke-width:0.214"
           d="m 51.172169,104.42282 c -0.0422,-4.75606 -0.25247,-11.56119 0.0468,-18.24115 l 4.72399,10.10279 c -0.43165,4.27279 -0.0555,6.12202 0.23386,8.2319 z"
           id="path2-6"
           sodipodi:nodetypes="ccccc" />
        <path
           id="path1"
           style="fill:#deaa87;stroke:#1a1a1a;stroke-width:0.22691"
           d="m 50.142199,131.78527 a 3.0757681,3.4580541 0 0 0 3.07578,3.49901 h 1.51412 a 3.0250608,3.4010444 0 0 0 3.02359,-3.49797 l -0.67386,-26.58082 a 1.1257306,1.2656472 0 0 0 -1.125,-1.22938 h -4.49172 a 1.0413141,1.1707386 0 0 0 -1.04128,1.15651 z m 2.72851,0.42788 a 1.1225319,1.0757599 0 0 1 1.12242,-1.0759 1.1225319,1.0757599 0 0 1 1.12241,1.0759 1.1225319,1.0757599 0 0 1 -1.12241,1.07591 1.1225319,1.0757599 0 0 1 -1.12242,-1.07591 z" />
      </g>
    </g>
  </g>
</svg>
